<?xml version="1.0" encoding="utf-8" standalone="no"?>
<!DOCTYPE svg PUBLIC "-//W3C//DTD SVG 1.1//EN"
  "http://www.w3.org/Graphics/SVG/1.1/DTD/svg11.dtd">
<svg xmlns:xlink="http://www.w3.org/1999/xlink" width="432pt" height="360pt" viewBox="0 0 432 360" xmlns="http://www.w3.org/2000/svg" version="1.1">
 <metadata>
  <rdf:RDF xmlns:dc="http://purl.org/dc/elements/1.1/" xmlns:cc="http://creativecommons.org/ns#" xmlns:rdf="http://www.w3.org/1999/02/22-rdf-syntax-ns#">
   <cc:Work>
    <dc:type rdf:resource="http://purl.org/dc/dcmitype/StillImage"/>
    <dc:date>2025-06-08T22:12:59.778537</dc:date>
    <dc:format>image/svg+xml</dc:format>
    <dc:creator>
     <cc:Agent>
      <dc:title>Matplotlib v3.9.4, https://matplotlib.org/</dc:title>
     </cc:Agent>
    </dc:creator>
   </cc:Work>
  </rdf:RDF>
 </metadata>
 <defs>
  <style type="text/css">*{stroke-linejoin: round; stroke-linecap: butt}</style>
 </defs>
 <g id="figure_1">
  <g id="patch_1">
   <path d="M 0 360 
L 432 360 
L 432 0 
L 0 0 
L 0 360 
z
" style="fill: none"/>
  </g>
  <g id="axes_1">
   <g id="patch_2">
    <path d="M 56.09 340.92 
L 419.04 340.92 
L 419.04 65.22 
L 56.09 65.22 
L 56.09 340.92 
z
" style="fill: none"/>
   </g>
   <g id="patch_3">
    <path d="M 72.587727 459.077143 
L 94.173539 459.077143 
L 94.173539 264.354171 
L 72.587727 264.354171 
z
" clip-path="url(#p72518c578a)" style="fill: url(#h126a8cbf40); stroke: #ff0000; stroke-width: 2; stroke-linejoin: miter"/>
   </g>
   <g id="patch_4">
    <path d="M 134.261474 459.077143 
L 155.847285 459.077143 
L 155.847285 256.0044 
L 134.261474 256.0044 
z
" clip-path="url(#p72518c578a)" style="fill: url(#h0f2c87c98b); stroke: #0000ff; stroke-width: 2; stroke-linejoin: miter"/>
   </g>
   <g id="patch_5">
    <path d="M 195.935221 459.077143 
L 217.521032 459.077143 
L 217.521032 217.209471 
L 195.935221 217.209471 
z
" clip-path="url(#p72518c578a)" style="fill: url(#h667ac7ffba); stroke: #008000; stroke-width: 2; stroke-linejoin: miter"/>
   </g>
   <g id="patch_6">
    <path d="M 257.608968 459.077143 
L 279.194779 459.077143 
L 279.194779 181.250314 
L 257.608968 181.250314 
z
" clip-path="url(#p72518c578a)" style="fill: url(#h3db17dea75); stroke: #00ffff; stroke-width: 2; stroke-linejoin: miter"/>
   </g>
   <g id="patch_7">
    <path d="M 319.282715 459.077143 
L 340.868526 459.077143 
L 340.868526 191.726914 
L 319.282715 191.726914 
z
" clip-path="url(#p72518c578a)" style="fill: url(#h3de9d64709); stroke: #00bfff; stroke-width: 2; stroke-linejoin: miter"/>
   </g>
   <g id="patch_8">
    <path d="M 380.956461 459.077143 
L 402.542273 459.077143 
L 402.542273 90.505629 
L 380.956461 90.505629 
z
" clip-path="url(#p72518c578a)" style="fill: url(#h032c7294ec); stroke: #800080; stroke-width: 2; stroke-linejoin: miter"/>
   </g>
   <g id="matplotlib.axis_1">
    <g id="xtick_1">
     <g id="line2d_1">
      <path d="M 83.380633 340.92 
L 83.380633 65.22 
" clip-path="url(#p72518c578a)" style="fill: none; stroke-dasharray: 2.96,1.28; stroke-dashoffset: 0; stroke: #b0b0b0; stroke-opacity: 0.6; stroke-width: 0.8"/>
     </g>
     <g id="line2d_2">
      <defs>
       <path id="m85e37928d1" d="M 0 0 
L 0 3.5 
" style="stroke: #000000; stroke-width: 0.8"/>
      </defs>
      <g>
       <use xlink:href="#m85e37928d1" x="83.380633" y="340.92" style="stroke: #000000; stroke-width: 0.8"/>
      </g>
     </g>
    </g>
    <g id="xtick_2">
     <g id="line2d_3">
      <path d="M 145.05438 340.92 
L 145.05438 65.22 
" clip-path="url(#p72518c578a)" style="fill: none; stroke-dasharray: 2.96,1.28; stroke-dashoffset: 0; stroke: #b0b0b0; stroke-opacity: 0.6; stroke-width: 0.8"/>
     </g>
     <g id="line2d_4">
      <g>
       <use xlink:href="#m85e37928d1" x="145.05438" y="340.92" style="stroke: #000000; stroke-width: 0.8"/>
      </g>
     </g>
    </g>
    <g id="xtick_3">
     <g id="line2d_5">
      <path d="M 206.728127 340.92 
L 206.728127 65.22 
" clip-path="url(#p72518c578a)" style="fill: none; stroke-dasharray: 2.96,1.28; stroke-dashoffset: 0; stroke: #b0b0b0; stroke-opacity: 0.6; stroke-width: 0.8"/>
     </g>
     <g id="line2d_6">
      <g>
       <use xlink:href="#m85e37928d1" x="206.728127" y="340.92" style="stroke: #000000; stroke-width: 0.8"/>
      </g>
     </g>
    </g>
    <g id="xtick_4">
     <g id="line2d_7">
      <path d="M 268.401873 340.92 
L 268.401873 65.22 
" clip-path="url(#p72518c578a)" style="fill: none; stroke-dasharray: 2.96,1.28; stroke-dashoffset: 0; stroke: #b0b0b0; stroke-opacity: 0.6; stroke-width: 0.8"/>
     </g>
     <g id="line2d_8">
      <g>
       <use xlink:href="#m85e37928d1" x="268.401873" y="340.92" style="stroke: #000000; stroke-width: 0.8"/>
      </g>
     </g>
    </g>
    <g id="xtick_5">
     <g id="line2d_9">
      <path d="M 330.07562 340.92 
L 330.07562 65.22 
" clip-path="url(#p72518c578a)" style="fill: none; stroke-dasharray: 2.96,1.28; stroke-dashoffset: 0; stroke: #b0b0b0; stroke-opacity: 0.6; stroke-width: 0.8"/>
     </g>
     <g id="line2d_10">
      <g>
       <use xlink:href="#m85e37928d1" x="330.07562" y="340.92" style="stroke: #000000; stroke-width: 0.8"/>
      </g>
     </g>
    </g>
    <g id="xtick_6">
     <g id="line2d_11">
      <path d="M 391.749367 340.92 
L 391.749367 65.22 
" clip-path="url(#p72518c578a)" style="fill: none; stroke-dasharray: 2.96,1.28; stroke-dashoffset: 0; stroke: #b0b0b0; stroke-opacity: 0.6; stroke-width: 0.8"/>
     </g>
     <g id="line2d_12">
      <g>
       <use xlink:href="#m85e37928d1" x="391.749367" y="340.92" style="stroke: #000000; stroke-width: 0.8"/>
      </g>
     </g>
    </g>
   </g>
   <g id="matplotlib.axis_2">
    <g id="ytick_1">
     <g id="line2d_13">
      <path d="M 56.09 340.92 
L 419.04 340.92 
" clip-path="url(#p72518c578a)" style="fill: none; stroke-dasharray: 2.96,1.28; stroke-dashoffset: 0; stroke: #b0b0b0; stroke-opacity: 0.6; stroke-width: 0.8"/>
     </g>
     <g id="line2d_14">
      <defs>
       <path id="m9cf1852f47" d="M 0 0 
L -3.5 0 
" style="stroke: #000000; stroke-width: 0.8"/>
      </defs>
      <g>
       <use xlink:href="#m9cf1852f47" x="56.09" y="340.92" style="stroke: #000000; stroke-width: 0.8"/>
      </g>
     </g>
     <g id="text_1">
      <!-- 30 -->
      <g transform="translate(36.365 344.719219) scale(0.1 -0.1)">
       <defs>
        <path id="DejaVuSerif-33" d="M 622 4469 
Q 988 4606 1323 4678 
Q 1659 4750 1953 4750 
Q 2638 4750 3022 4454 
Q 3406 4159 3406 3634 
Q 3406 3213 3140 2930 
Q 2875 2647 2388 2547 
Q 2963 2466 3280 2130 
Q 3597 1794 3597 1259 
Q 3597 606 3158 257 
Q 2719 -91 1894 -91 
Q 1528 -91 1179 -12 
Q 831 66 488 225 
L 488 1131 
L 838 1131 
Q 869 681 1141 450 
Q 1413 219 1906 219 
Q 2384 219 2661 495 
Q 2938 772 2938 1253 
Q 2938 1803 2653 2086 
Q 2369 2369 1819 2369 
L 1522 2369 
L 1522 2688 
L 1678 2688 
Q 2225 2688 2498 2914 
Q 2772 3141 2772 3597 
Q 2772 4006 2547 4223 
Q 2322 4441 1900 4441 
Q 1478 4441 1245 4241 
Q 1013 4041 972 3647 
L 622 3647 
L 622 4469 
z
" transform="scale(0.015625)"/>
        <path id="DejaVuSerif-30" d="M 2034 219 
Q 2513 219 2750 744 
Q 2988 1269 2988 2328 
Q 2988 3391 2750 3916 
Q 2513 4441 2034 4441 
Q 1556 4441 1318 3916 
Q 1081 3391 1081 2328 
Q 1081 1269 1318 744 
Q 1556 219 2034 219 
z
M 2034 -91 
Q 1275 -91 848 546 
Q 422 1184 422 2328 
Q 422 3475 848 4112 
Q 1275 4750 2034 4750 
Q 2797 4750 3222 4112 
Q 3647 3475 3647 2328 
Q 3647 1184 3222 546 
Q 2797 -91 2034 -91 
z
" transform="scale(0.015625)"/>
       </defs>
       <use xlink:href="#DejaVuSerif-33"/>
       <use xlink:href="#DejaVuSerif-30" x="63.623047"/>
      </g>
     </g>
    </g>
    <g id="ytick_2">
     <g id="line2d_15">
      <path d="M 56.09 301.534286 
L 419.04 301.534286 
" clip-path="url(#p72518c578a)" style="fill: none; stroke-dasharray: 2.96,1.28; stroke-dashoffset: 0; stroke: #b0b0b0; stroke-opacity: 0.6; stroke-width: 0.8"/>
     </g>
     <g id="line2d_16">
      <g>
       <use xlink:href="#m9cf1852f47" x="56.09" y="301.534286" style="stroke: #000000; stroke-width: 0.8"/>
      </g>
     </g>
     <g id="text_2">
      <!-- 40 -->
      <g transform="translate(36.365 305.333504) scale(0.1 -0.1)">
       <defs>
        <path id="DejaVuSerif-34" d="M 2234 1581 
L 2234 4063 
L 641 1581 
L 2234 1581 
z
M 3609 0 
L 1484 0 
L 1484 331 
L 2234 331 
L 2234 1247 
L 197 1247 
L 197 1588 
L 2241 4750 
L 2859 4750 
L 2859 1581 
L 3750 1581 
L 3750 1247 
L 2859 1247 
L 2859 331 
L 3609 331 
L 3609 0 
z
" transform="scale(0.015625)"/>
       </defs>
       <use xlink:href="#DejaVuSerif-34"/>
       <use xlink:href="#DejaVuSerif-30" x="63.623047"/>
      </g>
     </g>
    </g>
    <g id="ytick_3">
     <g id="line2d_17">
      <path d="M 56.09 262.148571 
L 419.04 262.148571 
" clip-path="url(#p72518c578a)" style="fill: none; stroke-dasharray: 2.96,1.28; stroke-dashoffset: 0; stroke: #b0b0b0; stroke-opacity: 0.6; stroke-width: 0.8"/>
     </g>
     <g id="line2d_18">
      <g>
       <use xlink:href="#m9cf1852f47" x="56.09" y="262.148571" style="stroke: #000000; stroke-width: 0.8"/>
      </g>
     </g>
     <g id="text_3">
      <!-- 50 -->
      <g transform="translate(36.365 265.94779) scale(0.1 -0.1)">
       <defs>
        <path id="DejaVuSerif-35" d="M 3219 4666 
L 3219 4153 
L 1081 4153 
L 1081 2816 
Q 1244 2928 1461 2984 
Q 1678 3041 1947 3041 
Q 2703 3041 3140 2622 
Q 3578 2203 3578 1478 
Q 3578 738 3136 323 
Q 2694 -91 1894 -91 
Q 1572 -91 1234 -12 
Q 897 66 544 225 
L 544 1131 
L 897 1131 
Q 925 688 1179 453 
Q 1434 219 1894 219 
Q 2388 219 2653 544 
Q 2919 869 2919 1478 
Q 2919 2084 2655 2407 
Q 2391 2731 1894 2731 
Q 1613 2731 1398 2631 
Q 1184 2531 1019 2322 
L 750 2322 
L 750 4666 
L 3219 4666 
z
" transform="scale(0.015625)"/>
       </defs>
       <use xlink:href="#DejaVuSerif-35"/>
       <use xlink:href="#DejaVuSerif-30" x="63.623047"/>
      </g>
     </g>
    </g>
    <g id="ytick_4">
     <g id="line2d_19">
      <path d="M 56.09 222.762857 
L 419.04 222.762857 
" clip-path="url(#p72518c578a)" style="fill: none; stroke-dasharray: 2.96,1.28; stroke-dashoffset: 0; stroke: #b0b0b0; stroke-opacity: 0.6; stroke-width: 0.8"/>
     </g>
     <g id="line2d_20">
      <g>
       <use xlink:href="#m9cf1852f47" x="56.09" y="222.762857" style="stroke: #000000; stroke-width: 0.8"/>
      </g>
     </g>
     <g id="text_4">
      <!-- 60 -->
      <g transform="translate(36.365 226.562076) scale(0.1 -0.1)">
       <defs>
        <path id="DejaVuSerif-36" d="M 2094 219 
Q 2534 219 2771 542 
Q 3009 866 3009 1472 
Q 3009 2078 2771 2401 
Q 2534 2725 2094 2725 
Q 1647 2725 1412 2412 
Q 1178 2100 1178 1509 
Q 1178 888 1415 553 
Q 1653 219 2094 219 
z
M 1075 2569 
Q 1288 2803 1556 2918 
Q 1825 3034 2163 3034 
Q 2859 3034 3264 2615 
Q 3669 2197 3669 1472 
Q 3669 763 3233 336 
Q 2797 -91 2069 -91 
Q 1278 -91 853 498 
Q 428 1088 428 2181 
Q 428 3406 931 4078 
Q 1434 4750 2350 4750 
Q 2597 4750 2869 4703 
Q 3141 4656 3425 4563 
L 3425 3794 
L 3072 3794 
Q 3034 4109 2831 4275 
Q 2628 4441 2284 4441 
Q 1678 4441 1381 3981 
Q 1084 3522 1075 2569 
z
" transform="scale(0.015625)"/>
       </defs>
       <use xlink:href="#DejaVuSerif-36"/>
       <use xlink:href="#DejaVuSerif-30" x="63.623047"/>
      </g>
     </g>
    </g>
    <g id="ytick_5">
     <g id="line2d_21">
      <path d="M 56.09 183.377143 
L 419.04 183.377143 
" clip-path="url(#p72518c578a)" style="fill: none; stroke-dasharray: 2.96,1.28; stroke-dashoffset: 0; stroke: #b0b0b0; stroke-opacity: 0.6; stroke-width: 0.8"/>
     </g>
     <g id="line2d_22">
      <g>
       <use xlink:href="#m9cf1852f47" x="56.09" y="183.377143" style="stroke: #000000; stroke-width: 0.8"/>
      </g>
     </g>
     <g id="text_5">
      <!-- 70 -->
      <g transform="translate(36.365 187.176362) scale(0.1 -0.1)">
       <defs>
        <path id="DejaVuSerif-37" d="M 3609 4347 
L 1784 0 
L 1319 0 
L 3059 4153 
L 903 4153 
L 903 3578 
L 538 3578 
L 538 4666 
L 3609 4666 
L 3609 4347 
z
" transform="scale(0.015625)"/>
       </defs>
       <use xlink:href="#DejaVuSerif-37"/>
       <use xlink:href="#DejaVuSerif-30" x="63.623047"/>
      </g>
     </g>
    </g>
    <g id="ytick_6">
     <g id="line2d_23">
      <path d="M 56.09 143.991429 
L 419.04 143.991429 
" clip-path="url(#p72518c578a)" style="fill: none; stroke-dasharray: 2.96,1.28; stroke-dashoffset: 0; stroke: #b0b0b0; stroke-opacity: 0.6; stroke-width: 0.8"/>
     </g>
     <g id="line2d_24">
      <g>
       <use xlink:href="#m9cf1852f47" x="56.09" y="143.991429" style="stroke: #000000; stroke-width: 0.8"/>
      </g>
     </g>
     <g id="text_6">
      <!-- 80 -->
      <g transform="translate(36.365 147.790647) scale(0.1 -0.1)">
       <defs>
        <path id="DejaVuSerif-38" d="M 2981 1275 
Q 2981 1775 2732 2051 
Q 2484 2328 2034 2328 
Q 1584 2328 1336 2051 
Q 1088 1775 1088 1275 
Q 1088 772 1336 495 
Q 1584 219 2034 219 
Q 2484 219 2732 495 
Q 2981 772 2981 1275 
z
M 2853 3541 
Q 2853 3966 2637 4203 
Q 2422 4441 2034 4441 
Q 1650 4441 1433 4203 
Q 1216 3966 1216 3541 
Q 1216 3113 1433 2875 
Q 1650 2638 2034 2638 
Q 2422 2638 2637 2875 
Q 2853 3113 2853 3541 
z
M 2516 2484 
Q 3047 2413 3344 2092 
Q 3641 1772 3641 1275 
Q 3641 619 3225 264 
Q 2809 -91 2034 -91 
Q 1263 -91 845 264 
Q 428 619 428 1275 
Q 428 1772 725 2092 
Q 1022 2413 1556 2484 
Q 1084 2569 832 2842 
Q 581 3116 581 3541 
Q 581 4103 968 4426 
Q 1356 4750 2034 4750 
Q 2713 4750 3100 4426 
Q 3488 4103 3488 3541 
Q 3488 3116 3236 2842 
Q 2984 2569 2516 2484 
z
" transform="scale(0.015625)"/>
       </defs>
       <use xlink:href="#DejaVuSerif-38"/>
       <use xlink:href="#DejaVuSerif-30" x="63.623047"/>
      </g>
     </g>
    </g>
    <g id="ytick_7">
     <g id="line2d_25">
      <path d="M 56.09 104.605714 
L 419.04 104.605714 
" clip-path="url(#p72518c578a)" style="fill: none; stroke-dasharray: 2.96,1.28; stroke-dashoffset: 0; stroke: #b0b0b0; stroke-opacity: 0.6; stroke-width: 0.8"/>
     </g>
     <g id="line2d_26">
      <g>
       <use xlink:href="#m9cf1852f47" x="56.09" y="104.605714" style="stroke: #000000; stroke-width: 0.8"/>
      </g>
     </g>
     <g id="text_7">
      <!-- 90 -->
      <g transform="translate(36.365 108.404933) scale(0.1 -0.1)">
       <defs>
        <path id="DejaVuSerif-39" d="M 2994 2091 
Q 2784 1856 2512 1740 
Q 2241 1625 1900 1625 
Q 1206 1625 804 2044 
Q 403 2463 403 3188 
Q 403 3897 839 4323 
Q 1275 4750 2003 4750 
Q 2794 4750 3217 4161 
Q 3641 3572 3641 2478 
Q 3641 1253 3137 581 
Q 2634 -91 1722 -91 
Q 1475 -91 1203 -44 
Q 931 3 647 97 
L 647 872 
L 997 872 
Q 1038 556 1241 387 
Q 1444 219 1784 219 
Q 2391 219 2687 676 
Q 2984 1134 2994 2091 
z
M 1978 4441 
Q 1534 4441 1298 4117 
Q 1063 3794 1063 3188 
Q 1063 2581 1298 2256 
Q 1534 1931 1978 1931 
Q 2422 1931 2658 2245 
Q 2894 2559 2894 3150 
Q 2894 3772 2656 4106 
Q 2419 4441 1978 4441 
z
" transform="scale(0.015625)"/>
       </defs>
       <use xlink:href="#DejaVuSerif-39"/>
       <use xlink:href="#DejaVuSerif-30" x="63.623047"/>
      </g>
     </g>
    </g>
    <g id="ytick_8">
     <g id="line2d_27">
      <path d="M 56.09 65.22 
L 419.04 65.22 
" clip-path="url(#p72518c578a)" style="fill: none; stroke-dasharray: 2.96,1.28; stroke-dashoffset: 0; stroke: #b0b0b0; stroke-opacity: 0.6; stroke-width: 0.8"/>
     </g>
     <g id="line2d_28">
      <g>
       <use xlink:href="#m9cf1852f47" x="56.09" y="65.22" style="stroke: #000000; stroke-width: 0.8"/>
      </g>
     </g>
     <g id="text_8">
      <!-- 100 -->
      <g transform="translate(30.0025 69.019219) scale(0.1 -0.1)">
       <defs>
        <path id="DejaVuSerif-31" d="M 909 0 
L 909 331 
L 1722 331 
L 1722 4213 
L 781 3603 
L 781 4013 
L 1919 4750 
L 2350 4750 
L 2350 331 
L 3163 331 
L 3163 0 
L 909 0 
z
" transform="scale(0.015625)"/>
       </defs>
       <use xlink:href="#DejaVuSerif-31"/>
       <use xlink:href="#DejaVuSerif-30" x="63.623047"/>
       <use xlink:href="#DejaVuSerif-30" x="127.246094"/>
      </g>
     </g>
    </g>
    <g id="text_9">
     <!-- Neighborhood Success (%) -->
     <g transform="translate(22.891875 308.292031) rotate(-90) scale(0.14 -0.14)">
      <defs>
       <path id="DejaVuSerif-Bold-4e" d="M 281 0 
L 281 378 
L 878 378 
L 878 4288 
L 281 4288 
L 281 4666 
L 1741 4666 
L 4556 1363 
L 4556 4288 
L 3963 4288 
L 3963 4666 
L 5594 4666 
L 5594 4288 
L 4997 4288 
L 4997 0 
L 4178 0 
L 1319 3372 
L 1319 378 
L 1913 378 
L 1913 0 
L 281 0 
z
" transform="scale(0.015625)"/>
       <path id="DejaVuSerif-Bold-65" d="M 2566 1875 
Q 2566 2531 2444 2795 
Q 2322 3059 2028 3059 
Q 1744 3059 1620 2800 
Q 1497 2541 1497 1931 
L 1497 1875 
L 2566 1875 
z
M 3781 1503 
L 1497 1503 
L 1497 1478 
Q 1497 834 1690 548 
Q 1884 263 2316 263 
Q 2675 263 2897 453 
Q 3119 644 3181 1006 
L 3700 1006 
Q 3566 441 3166 175 
Q 2766 -91 2047 -91 
Q 1184 -91 723 364 
Q 263 819 263 1663 
Q 263 2488 734 2950 
Q 1206 3413 2047 3413 
Q 2872 3413 3312 2927 
Q 3753 2441 3781 1503 
z
" transform="scale(0.015625)"/>
       <path id="DejaVuSerif-Bold-69" d="M 588 4263 
Q 588 4516 763 4689 
Q 938 4863 1191 4863 
Q 1438 4863 1611 4689 
Q 1784 4516 1784 4263 
Q 1784 4016 1611 3842 
Q 1438 3669 1191 3669 
Q 938 3669 763 3841 
Q 588 4013 588 4263 
z
M 1797 378 
L 2272 378 
L 2272 0 
L 219 0 
L 219 378 
L 691 378 
L 691 2944 
L 219 2944 
L 219 3322 
L 1797 3322 
L 1797 378 
z
" transform="scale(0.015625)"/>
       <path id="DejaVuSerif-Bold-67" d="M 3853 2944 
L 3853 44 
Q 3853 -656 3354 -1039 
Q 2856 -1422 1947 -1422 
Q 1616 -1422 1275 -1370 
Q 934 -1319 575 -1216 
L 575 -422 
L 928 -422 
Q 975 -750 1192 -909 
Q 1409 -1069 1813 -1069 
Q 2325 -1069 2536 -823 
Q 2747 -578 2747 44 
L 2747 422 
Q 2606 163 2367 36 
Q 2128 -91 1778 -91 
Q 1072 -91 667 378 
Q 263 847 263 1663 
Q 263 2481 667 2947 
Q 1072 3413 1778 3413 
Q 2128 3413 2367 3286 
Q 2606 3159 2747 2900 
L 2747 3322 
L 4325 3322 
L 4325 2944 
L 3853 2944 
z
M 2747 1825 
Q 2747 2406 2597 2665 
Q 2447 2925 2119 2925 
Q 1775 2925 1636 2651 
Q 1497 2378 1497 1663 
Q 1497 947 1637 672 
Q 1778 397 2119 397 
Q 2447 397 2597 656 
Q 2747 916 2747 1497 
L 2747 1825 
z
" transform="scale(0.015625)"/>
       <path id="DejaVuSerif-Bold-68" d="M 219 0 
L 219 378 
L 691 378 
L 691 4488 
L 197 4488 
L 197 4863 
L 1797 4863 
L 1797 2853 
Q 1997 3150 2253 3281 
Q 2509 3413 2900 3413 
Q 3459 3413 3745 3083 
Q 4031 2753 4031 2113 
L 4031 378 
L 4506 378 
L 4506 0 
L 2522 0 
L 2522 378 
L 2925 378 
L 2925 2144 
Q 2925 2566 2817 2730 
Q 2709 2894 2444 2894 
Q 2109 2894 1953 2648 
Q 1797 2403 1797 1869 
L 1797 378 
L 2203 378 
L 2203 0 
L 219 0 
z
" transform="scale(0.015625)"/>
       <path id="DejaVuSerif-Bold-62" d="M 622 378 
L 622 4488 
L 147 4488 
L 147 4863 
L 1728 4863 
L 1728 2900 
Q 1869 3159 2106 3286 
Q 2344 3413 2694 3413 
Q 3403 3413 3811 2945 
Q 4219 2478 4219 1663 
Q 4219 847 3811 378 
Q 3403 -91 2694 -91 
Q 2344 -91 2106 36 
Q 1869 163 1728 422 
L 1728 0 
L 147 0 
L 147 378 
L 622 378 
z
M 1728 1497 
Q 1728 916 1876 656 
Q 2025 397 2356 397 
Q 2697 397 2836 672 
Q 2975 947 2975 1663 
Q 2975 2378 2836 2651 
Q 2697 2925 2356 2925 
Q 2025 2925 1876 2665 
Q 1728 2406 1728 1825 
L 1728 1497 
z
" transform="scale(0.015625)"/>
       <path id="DejaVuSerif-Bold-6f" d="M 2138 263 
Q 2488 263 2630 563 
Q 2772 863 2772 1663 
Q 2772 2463 2631 2761 
Q 2491 3059 2138 3059 
Q 1784 3059 1640 2757 
Q 1497 2456 1497 1663 
Q 1497 869 1640 566 
Q 1784 263 2138 263 
z
M 2138 -91 
Q 1259 -91 761 376 
Q 263 844 263 1663 
Q 263 2484 761 2948 
Q 1259 3413 2138 3413 
Q 3019 3413 3516 2948 
Q 4013 2484 4013 1663 
Q 4013 844 3514 376 
Q 3016 -91 2138 -91 
z
" transform="scale(0.015625)"/>
       <path id="DejaVuSerif-Bold-72" d="M 3438 3359 
L 3438 2369 
L 3084 2369 
Q 3066 2634 2941 2764 
Q 2816 2894 2578 2894 
Q 2216 2894 2006 2575 
Q 1797 2256 1797 1691 
L 1797 378 
L 2400 378 
L 2400 0 
L 219 0 
L 219 378 
L 691 378 
L 691 2944 
L 184 2944 
L 184 3322 
L 1797 3322 
L 1797 2731 
Q 1959 3078 2226 3245 
Q 2494 3413 2881 3413 
Q 2978 3413 3117 3398 
Q 3256 3384 3438 3359 
z
" transform="scale(0.015625)"/>
       <path id="DejaVuSerif-Bold-64" d="M 2747 1497 
L 2747 1825 
Q 2747 2406 2597 2665 
Q 2447 2925 2119 2925 
Q 1775 2925 1636 2651 
Q 1497 2378 1497 1663 
Q 1497 947 1637 672 
Q 1778 397 2119 397 
Q 2447 397 2597 656 
Q 2747 916 2747 1497 
z
M 3853 378 
L 4325 378 
L 4325 0 
L 2747 0 
L 2747 422 
Q 2606 163 2367 36 
Q 2128 -91 1778 -91 
Q 1072 -91 667 378 
Q 263 847 263 1663 
Q 263 2481 667 2947 
Q 1072 3413 1778 3413 
Q 2128 3413 2367 3286 
Q 2606 3159 2747 2900 
L 2747 4488 
L 2272 4488 
L 2272 4863 
L 3853 4863 
L 3853 378 
z
" transform="scale(0.015625)"/>
       <path id="DejaVuSerif-Bold-20" transform="scale(0.015625)"/>
       <path id="DejaVuSerif-Bold-53" d="M 494 225 
L 494 1331 
L 891 1331 
Q 981 806 1318 547 
Q 1656 288 2253 288 
Q 2738 288 2991 472 
Q 3244 656 3244 1013 
Q 3244 1294 3072 1450 
Q 2900 1606 2363 1741 
L 1663 1913 
Q 978 2088 700 2398 
Q 422 2709 422 3284 
Q 422 3978 883 4364 
Q 1344 4750 2175 4750 
Q 2584 4750 3026 4681 
Q 3469 4613 3944 4475 
L 3944 3444 
L 3547 3444 
Q 3456 3925 3150 4148 
Q 2844 4372 2278 4372 
Q 1816 4372 1580 4211 
Q 1344 4050 1344 3731 
Q 1344 3441 1506 3289 
Q 1669 3138 2303 2975 
L 3003 2803 
Q 3653 2641 3945 2297 
Q 4238 1953 4238 1350 
Q 4238 644 3750 276 
Q 3263 -91 2316 -91 
Q 1859 -91 1409 -12 
Q 959 66 494 225 
z
" transform="scale(0.015625)"/>
       <path id="DejaVuSerif-Bold-75" d="M 3963 3322 
L 3963 378 
L 4434 378 
L 4434 0 
L 2853 0 
L 2853 469 
Q 2656 172 2400 40 
Q 2144 -91 1753 -91 
Q 1194 -91 908 239 
Q 622 569 622 1209 
L 622 2944 
L 147 2944 
L 147 3322 
L 1728 3322 
L 1728 1381 
Q 1728 763 1831 595 
Q 1934 428 2209 428 
Q 2544 428 2698 675 
Q 2853 922 2853 1459 
L 2853 2944 
L 2450 2944 
L 2450 3322 
L 3963 3322 
z
" transform="scale(0.015625)"/>
       <path id="DejaVuSerif-Bold-63" d="M 3609 1038 
Q 3491 469 3123 189 
Q 2756 -91 2125 -91 
Q 1238 -91 750 368 
Q 263 828 263 1663 
Q 263 2488 744 2950 
Q 1225 3413 2081 3413 
Q 2428 3413 2781 3347 
Q 3134 3281 3500 3150 
L 3500 2228 
L 3150 2228 
Q 3100 2650 2903 2854 
Q 2706 3059 2350 3059 
Q 1888 3059 1692 2746 
Q 1497 2434 1497 1663 
Q 1497 909 1687 586 
Q 1878 263 2309 263 
Q 2644 263 2845 463 
Q 3047 663 3091 1038 
L 3609 1038 
z
" transform="scale(0.015625)"/>
       <path id="DejaVuSerif-Bold-73" d="M 300 97 
L 300 1025 
L 653 1025 
Q 697 653 931 458 
Q 1166 263 1569 263 
Q 1906 263 2086 380 
Q 2266 497 2266 716 
Q 2266 916 2152 1025 
Q 2038 1134 1709 1216 
L 1253 1331 
Q 738 1459 506 1698 
Q 275 1938 275 2344 
Q 275 2884 650 3148 
Q 1025 3413 1806 3413 
Q 2100 3413 2433 3364 
Q 2766 3316 3169 3213 
L 3169 2375 
L 2816 2375 
Q 2788 2716 2573 2887 
Q 2359 3059 1959 3059 
Q 1622 3059 1448 2951 
Q 1275 2844 1275 2638 
Q 1275 2469 1375 2372 
Q 1475 2275 1734 2209 
L 2188 2094 
Q 2841 1928 3091 1684 
Q 3341 1441 3341 1006 
Q 3341 444 2939 176 
Q 2538 -91 1691 -91 
Q 1381 -91 1034 -44 
Q 688 3 300 97 
z
" transform="scale(0.015625)"/>
       <path id="DejaVuSerif-Bold-28" d="M 2694 -997 
Q 1641 -606 1122 122 
Q 603 850 603 1931 
Q 603 3013 1115 3731 
Q 1628 4450 2694 4863 
L 2694 4488 
Q 2200 4188 1983 3598 
Q 1766 3009 1766 1931 
Q 1766 856 1983 267 
Q 2200 -322 2694 -622 
L 2694 -997 
z
" transform="scale(0.015625)"/>
       <path id="DejaVuSerif-Bold-25" d="M 1381 4434 
Q 1181 4434 1093 4217 
Q 1006 4000 1006 3481 
Q 1006 2959 1093 2740 
Q 1181 2522 1381 2522 
Q 1584 2522 1671 2740 
Q 1759 2959 1759 3481 
Q 1759 4000 1671 4217 
Q 1584 4434 1381 4434 
z
M 1381 4750 
Q 1978 4750 2295 4423 
Q 2613 4097 2613 3481 
Q 2613 2866 2295 2537 
Q 1978 2209 1381 2209 
Q 788 2209 470 2537 
Q 153 2866 153 3481 
Q 153 4097 470 4423 
Q 788 4750 1381 4750 
z
M 4231 4750 
L 4769 4750 
L 1850 -91 
L 1313 -91 
L 4231 4750 
z
M 4697 2450 
Q 5294 2450 5609 2123 
Q 5925 1797 5925 1184 
Q 5925 569 5609 239 
Q 5294 -91 4697 -91 
Q 4103 -91 3786 239 
Q 3469 569 3469 1184 
Q 3469 1797 3786 2123 
Q 4103 2450 4697 2450 
z
M 4697 2138 
Q 4494 2138 4406 1920 
Q 4319 1703 4319 1184 
Q 4319 663 4408 444 
Q 4497 225 4697 225 
Q 4900 225 4987 444 
Q 5075 663 5075 1184 
Q 5075 1703 4987 1920 
Q 4900 2138 4697 2138 
z
" transform="scale(0.015625)"/>
       <path id="DejaVuSerif-Bold-29" d="M 325 -997 
L 325 -622 
Q 819 -322 1036 267 
Q 1253 856 1253 1931 
Q 1253 3009 1036 3598 
Q 819 4188 325 4488 
L 325 4863 
Q 1391 4450 1905 3731 
Q 2419 3013 2419 1931 
Q 2419 850 1898 122 
Q 1378 -606 325 -997 
z
" transform="scale(0.015625)"/>
      </defs>
      <use xlink:href="#DejaVuSerif-Bold-4e"/>
      <use xlink:href="#DejaVuSerif-Bold-65" x="91.40625"/>
      <use xlink:href="#DejaVuSerif-Bold-69" x="155.029297"/>
      <use xlink:href="#DejaVuSerif-Bold-67" x="193.017578"/>
      <use xlink:href="#DejaVuSerif-Bold-68" x="262.939453"/>
      <use xlink:href="#DejaVuSerif-Bold-62" x="335.644531"/>
      <use xlink:href="#DejaVuSerif-Bold-6f" x="405.566406"/>
      <use xlink:href="#DejaVuSerif-Bold-72" x="472.265625"/>
      <use xlink:href="#DejaVuSerif-Bold-68" x="524.951172"/>
      <use xlink:href="#DejaVuSerif-Bold-6f" x="597.65625"/>
      <use xlink:href="#DejaVuSerif-Bold-6f" x="664.355469"/>
      <use xlink:href="#DejaVuSerif-Bold-64" x="731.054688"/>
      <use xlink:href="#DejaVuSerif-Bold-20" x="800.976562"/>
      <use xlink:href="#DejaVuSerif-Bold-53" x="835.791016"/>
      <use xlink:href="#DejaVuSerif-Bold-75" x="908.007812"/>
      <use xlink:href="#DejaVuSerif-Bold-63" x="980.712891"/>
      <use xlink:href="#DejaVuSerif-Bold-63" x="1041.601562"/>
      <use xlink:href="#DejaVuSerif-Bold-65" x="1102.490234"/>
      <use xlink:href="#DejaVuSerif-Bold-73" x="1166.113281"/>
      <use xlink:href="#DejaVuSerif-Bold-73" x="1222.412109"/>
      <use xlink:href="#DejaVuSerif-Bold-20" x="1278.710938"/>
      <use xlink:href="#DejaVuSerif-Bold-28" x="1313.525391"/>
      <use xlink:href="#DejaVuSerif-Bold-25" x="1360.839844"/>
      <use xlink:href="#DejaVuSerif-Bold-29" x="1455.859375"/>
     </g>
    </g>
   </g>
   <g id="patch_9">
    <path d="M 56.09 340.92 
L 56.09 65.22 
" style="fill: none; stroke: #000000; stroke-width: 0.8; stroke-linejoin: miter; stroke-linecap: square"/>
   </g>
   <g id="patch_10">
    <path d="M 419.04 340.92 
L 419.04 65.22 
" style="fill: none; stroke: #000000; stroke-width: 0.8; stroke-linejoin: miter; stroke-linecap: square"/>
   </g>
   <g id="patch_11">
    <path d="M 56.09 340.92 
L 419.04 340.92 
" style="fill: none; stroke: #000000; stroke-width: 0.8; stroke-linejoin: miter; stroke-linecap: square"/>
   </g>
   <g id="patch_12">
    <path d="M 56.09 65.22 
L 419.04 65.22 
" style="fill: none; stroke: #000000; stroke-width: 0.8; stroke-linejoin: miter; stroke-linecap: square"/>
   </g>
   <g id="patch_13">
    <path d="M 208.455925 216.202071 
Q 237.563591 199.230715 265.222479 183.104075 
" style="fill: none; stroke: #808080; stroke-width: 1.5; stroke-linecap: round"/>
    <path d="M 259.866978 183.448472 
L 265.222479 183.104075 
L 262.284696 187.595114 
" style="fill: none; stroke: #808080; stroke-width: 1.5; stroke-linecap: round"/>
   </g>
   <g id="text_10">
    <!-- +9.1% -->
    <g style="fill: #808080" transform="translate(200.551501 193.066029) scale(0.16 -0.16)">
     <defs>
      <path id="ComicSansMS-Bold-2b" d="M 3081 1634 
Q 3044 1634 2970 1645 
Q 2897 1656 2856 1656 
Q 2772 1656 2608 1651 
Q 2444 1647 2356 1647 
Q 2359 1541 2356 1369 
Q 2353 1150 2353 1094 
Q 2353 934 2237 829 
Q 2122 725 1950 725 
Q 1778 725 1662 829 
Q 1547 934 1547 1094 
Q 1547 1053 1541 1631 
Q 1306 1619 1131 1619 
Q 909 1619 738 1700 
Q 522 1803 522 1994 
Q 522 2238 722 2313 
Q 831 2353 1131 2353 
Q 1309 2353 1541 2366 
Q 1541 2397 1537 2490 
Q 1534 2584 1534 2644 
Q 1534 3269 1956 3269 
Q 2122 3269 2244 3167 
Q 2366 3066 2366 2909 
Q 2366 2859 2355 2754 
Q 2344 2650 2344 2597 
L 2347 2378 
Q 2419 2375 2456 2375 
Q 2519 2375 2645 2381 
Q 2772 2388 2838 2388 
Q 3475 2388 3475 2009 
Q 3475 1859 3369 1750 
Q 3253 1634 3081 1634 
z
" transform="scale(0.015625)"/>
      <path id="ComicSansMS-Bold-39" d="M 2469 1694 
Q 2278 1628 2120 1595 
Q 1963 1563 1838 1563 
Q 1209 1563 741 1900 
Q 166 2313 166 3078 
Q 166 3966 753 4419 
Q 1247 4800 2038 4800 
Q 2666 4800 3156 4316 
Q 3672 3809 3675 3091 
Q 3678 2309 3372 1575 
Q 3041 778 2466 372 
Q 2225 203 1713 -31 
Q 1125 -297 881 -297 
Q 697 -297 575 -166 
Q 463 -44 463 119 
Q 463 369 763 500 
Q 1019 581 1275 666 
Q 1731 841 1992 1064 
Q 2253 1288 2469 1694 
z
M 1947 4053 
Q 1484 4053 1253 3823 
Q 1022 3594 1019 3131 
Q 1019 2756 1291 2547 
Q 1538 2359 1928 2359 
Q 2084 2359 2298 2456 
Q 2513 2553 2784 2747 
Q 2816 2966 2816 3091 
Q 2813 3419 2519 3741 
Q 2228 4053 1947 4053 
z
" transform="scale(0.015625)"/>
      <path id="ComicSansMS-Bold-2e" d="M 1378 -325 
Q 1169 -325 1016 -195 
Q 863 -66 863 97 
Q 863 263 1016 395 
Q 1169 528 1378 528 
Q 1600 528 1744 403 
Q 1888 278 1888 97 
Q 1888 -69 1738 -197 
Q 1588 -325 1378 -325 
z
" transform="scale(0.015625)"/>
      <path id="ComicSansMS-Bold-31" d="M 2569 -3 
L 1328 0 
Q 738 0 738 372 
Q 738 791 1397 791 
Q 1459 791 1534 788 
L 1534 3559 
Q 1263 3372 1181 3372 
Q 1006 3372 876 3497 
Q 747 3622 747 3788 
Q 747 3959 956 4141 
L 1309 4397 
L 1691 4703 
Q 1925 4872 2144 4872 
Q 2425 4872 2425 4534 
Q 2425 4163 2394 3488 
Q 2363 2813 2363 1559 
L 2363 803 
L 2569 803 
Q 2750 803 2873 687 
Q 2997 572 2997 400 
Q 2997 228 2873 112 
Q 2750 -3 2569 -3 
z
" transform="scale(0.015625)"/>
      <path id="ComicSansMS-Bold-25" d="M 1384 3100 
Q 888 3100 600 3434 
Q 334 3738 334 4200 
Q 334 4550 697 4847 
Q 1041 5131 1394 5131 
Q 1906 5131 2209 4803 
Q 2497 4494 2497 4013 
Q 2497 3588 2131 3328 
Q 1809 3100 1384 3100 
z
M 3963 4428 
Q 3850 4253 3719 3963 
Q 3531 3547 3500 3481 
Q 3288 3066 2884 2222 
Q 2872 2191 2181 809 
Q 2084 578 1866 128 
Q 1744 -94 1519 -94 
Q 1369 -94 1247 9 
Q 1125 113 1125 269 
Q 1125 434 1597 1378 
L 2172 2509 
Q 2466 3100 3016 4294 
Q 3319 5013 3641 5013 
Q 3797 5013 3917 4905 
Q 4038 4797 4038 4644 
Q 4038 4544 3963 4428 
z
M 3938 -63 
Q 3463 -63 3147 213 
Q 2813 500 2813 959 
Q 2813 1444 3103 1769 
Q 3416 2119 3931 2119 
Q 4394 2119 4750 1869 
Q 5153 1581 5153 1122 
Q 5153 619 4811 278 
Q 4469 -63 3938 -63 
z
M 1384 4391 
Q 1281 4391 1193 4327 
Q 1106 4263 1106 4200 
Q 1106 4019 1176 3928 
Q 1247 3838 1384 3838 
Q 1528 3838 1625 3892 
Q 1722 3947 1722 4013 
Q 1722 4203 1637 4297 
Q 1553 4391 1384 4391 
z
M 3931 1381 
Q 3759 1381 3673 1276 
Q 3588 1172 3588 959 
Q 3588 819 3692 747 
Q 3797 675 4006 675 
Q 4219 675 4298 773 
Q 4378 872 4378 1122 
Q 4378 1225 4245 1303 
Q 4113 1381 3931 1381 
z
" transform="scale(0.015625)"/>
     </defs>
     <use xlink:href="#ComicSansMS-Bold-2b"/>
     <use xlink:href="#ComicSansMS-Bold-39" x="61.035156"/>
     <use xlink:href="#ComicSansMS-Bold-2e" x="122.070312"/>
     <use xlink:href="#ComicSansMS-Bold-31" x="165.429688"/>
     <use xlink:href="#ComicSansMS-Bold-25" x="226.464844"/>
    </g>
   </g>
   <g id="patch_14">
    <path d="M 146.744536 254.941233 
Q 175.888785 236.608489 203.613477 219.168694 
" style="fill: none; stroke: #ff0000; stroke-width: 1.5; stroke-linecap: round"/>
    <path d="M 198.272584 219.692963 
L 203.613477 219.168694 
L 200.828357 223.75597 
" style="fill: none; stroke: #ff0000; stroke-width: 1.5; stroke-linecap: round"/>
   </g>
   <g id="text_11">
    <!-- +9.8% -->
    <g style="fill: #ff0000" transform="translate(138.877754 229.025186) scale(0.16 -0.16)">
     <defs>
      <path id="ComicSansMS-Bold-38" d="M 1919 -169 
Q 1225 -169 781 125 
Q 266 469 256 1128 
Q 241 2050 863 2450 
Q 409 2809 409 3353 
Q 409 3969 878 4375 
Q 1325 4763 1956 4769 
Q 2703 4775 3075 4372 
Q 3394 4022 3394 3416 
Q 3394 3075 3272 2869 
Q 3163 2684 2906 2534 
Q 3288 2322 3453 2041 
Q 3644 1728 3644 1219 
Q 3644 550 3122 172 
Q 2650 -169 1919 -169 
z
M 1947 4000 
Q 1263 4000 1269 3356 
Q 1272 3034 1859 2884 
Q 2188 2975 2313 3050 
Q 2534 3184 2534 3416 
Q 2534 3766 2384 3894 
Q 2259 4000 1947 4000 
z
M 1900 2106 
Q 1450 1909 1306 1759 
Q 1097 1550 1109 1163 
Q 1119 859 1403 706 
Q 1625 588 1919 588 
Q 2409 588 2594 794 
Q 2738 956 2738 1313 
Q 2738 1634 2484 1834 
Q 2294 1984 1900 2106 
z
" transform="scale(0.015625)"/>
     </defs>
     <use xlink:href="#ComicSansMS-Bold-2b"/>
     <use xlink:href="#ComicSansMS-Bold-39" x="61.035156"/>
     <use xlink:href="#ComicSansMS-Bold-2e" x="122.070312"/>
     <use xlink:href="#ComicSansMS-Bold-38" x="165.429688"/>
     <use xlink:href="#ComicSansMS-Bold-25" x="226.464844"/>
    </g>
   </g>
   <g id="patch_15">
    <path d="M 270.009215 180.06782 
Q 330.074947 135.878467 388.789812 92.682923 
" style="fill: none; stroke: #0000ff; stroke-width: 1.5; stroke-linecap: round"/>
    <path d="M 383.50118 93.594171 
L 388.789812 92.682923 
L 386.345631 97.460577 
" style="fill: none; stroke: #0000ff; stroke-width: 1.5; stroke-linecap: round"/>
   </g>
   <g id="text_12">
    <!-- +23.0% -->
    <g style="fill: #0000ff" transform="translate(288.179621 122.0142) scale(0.16 -0.16)">
     <defs>
      <path id="ComicSansMS-Bold-32" d="M 3150 -6 
Q 3072 -6 2908 20 
Q 2744 47 2672 47 
L 1753 50 
Q 1634 50 1393 20 
Q 1153 -9 1031 -9 
Q 997 -9 931 3 
Q 866 16 831 16 
Q 550 16 450 244 
Q 388 388 388 688 
Q 388 1272 647 1666 
Q 847 1969 1294 2272 
Q 1716 2550 2134 2825 
Q 2628 3184 2628 3641 
Q 2628 3759 2431 3876 
Q 2234 3994 2047 3994 
Q 1716 3994 1345 3698 
Q 975 3403 838 3403 
Q 672 3403 547 3484 
Q 391 3584 391 3763 
Q 391 3953 547 4091 
Q 925 4425 1206 4578 
Q 1613 4800 2047 4800 
Q 2588 4800 3022 4516 
Q 3519 4191 3519 3666 
Q 3519 3134 3275 2763 
Q 3084 2466 2672 2184 
Q 2281 1938 1891 1694 
Q 1297 1306 1253 809 
Q 1425 831 1759 859 
Q 2425 894 2713 894 
Q 2981 894 3244 778 
Q 3569 634 3569 409 
Q 3569 247 3453 125 
Q 3331 -6 3150 -6 
z
" transform="scale(0.015625)"/>
      <path id="ComicSansMS-Bold-33" d="M 2866 2531 
Q 3509 2172 3509 1381 
Q 3509 744 3037 300 
Q 2566 -144 1891 -144 
Q 1388 -144 984 59 
Q 519 297 356 734 
Q 331 800 331 875 
Q 331 1050 472 1166 
Q 603 1272 772 1272 
Q 969 1272 1088 1116 
Q 1288 847 1319 822 
Q 1513 666 1891 666 
Q 2188 666 2411 844 
Q 2634 1022 2634 1272 
Q 2634 2050 1588 2153 
Q 1128 2197 1128 2538 
Q 1128 2797 1484 2916 
Q 1822 2991 2156 3069 
Q 2369 3134 2475 3240 
Q 2581 3347 2584 3494 
Q 2597 3959 1856 3959 
Q 1613 3959 1322 3773 
Q 1031 3588 925 3588 
Q 747 3588 622 3716 
Q 497 3844 497 4006 
Q 497 4272 1022 4534 
Q 1491 4769 1784 4769 
Q 2494 4769 2925 4463 
Q 3397 4125 3397 3500 
Q 3397 3156 3264 2914 
Q 3131 2672 2866 2531 
z
" transform="scale(0.015625)"/>
      <path id="ComicSansMS-Bold-30" d="M 1909 -122 
Q 875 -122 409 772 
Q 66 1434 66 2481 
Q 66 3375 519 4050 
Q 1063 4859 2006 4859 
Q 2900 4859 3394 4138 
Q 3809 3528 3809 2666 
Q 3809 1272 3334 575 
Q 2859 -122 1909 -122 
z
M 2003 4047 
Q 1497 4047 1191 3544 
Q 922 3106 922 2528 
Q 922 1766 1066 1353 
Q 1297 688 1909 688 
Q 2422 688 2678 1155 
Q 2934 1622 2934 2556 
Q 2934 3303 2701 3675 
Q 2469 4047 2003 4047 
z
" transform="scale(0.015625)"/>
     </defs>
     <use xlink:href="#ComicSansMS-Bold-2b"/>
     <use xlink:href="#ComicSansMS-Bold-32" x="61.035156"/>
     <use xlink:href="#ComicSansMS-Bold-33" x="122.070312"/>
     <use xlink:href="#ComicSansMS-Bold-2e" x="183.105469"/>
     <use xlink:href="#ComicSansMS-Bold-30" x="226.464844"/>
     <use xlink:href="#ComicSansMS-Bold-25" x="287.5"/>
    </g>
   </g>
   <g id="text_13">
    <!-- 49.44 -->
    <g transform="translate(67.238758 261.203314) scale(0.12 -0.12)">
     <defs>
      <path id="ComicSansMS-34" d="M 3013 1366 
L 3013 209 
Q 3013 -81 2728 -81 
Q 2397 -81 2397 372 
Q 2397 428 2403 531 
Q 2409 634 2409 672 
L 2406 1381 
L 1028 1416 
Q 600 1416 434 1444 
Q 150 1491 150 1666 
Q 150 1806 322 2022 
L 591 2341 
L 2128 4584 
Q 2338 4875 2659 4875 
Q 3013 4875 3013 4569 
L 3013 1972 
Q 3066 1975 3141 1975 
Q 3716 1975 3716 1666 
Q 3716 1441 3478 1381 
Q 3372 1353 3013 1366 
z
M 2406 4009 
Q 1572 2678 1103 2016 
L 2406 1984 
L 2406 4009 
z
" transform="scale(0.015625)"/>
      <path id="ComicSansMS-39" d="M 2450 378 
Q 2222 209 1719 -28 
Q 1159 -297 941 -297 
Q 813 -297 730 -203 
Q 647 -109 647 16 
Q 647 200 859 294 
L 1381 472 
Q 1866 669 2147 925 
Q 2428 1181 2659 1653 
L 2794 1922 
Q 2619 1822 2344 1737 
Q 2069 1653 1897 1653 
Q 1306 1653 875 1981 
Q 350 2381 350 3119 
Q 350 3991 888 4428 
Q 1347 4800 2094 4800 
Q 2669 4800 3125 4331 
Q 3606 3834 3609 3131 
Q 3613 2338 3316 1591 
Q 2997 784 2450 378 
z
M 2006 4266 
Q 1481 4266 1217 3994 
Q 953 3722 950 3175 
Q 950 2716 1272 2463 
Q 1556 2241 1988 2241 
Q 2238 2241 2509 2391 
Q 2634 2459 2959 2700 
Q 3000 2972 3000 3131 
Q 2997 3522 2670 3894 
Q 2344 4266 2006 4266 
z
" transform="scale(0.015625)"/>
      <path id="ComicSansMS-2e" d="M 834 -291 
Q 672 -291 559 -178 
Q 447 -66 447 97 
Q 447 256 559 370 
Q 672 484 834 484 
Q 994 484 1108 370 
Q 1222 256 1222 97 
Q 1222 -66 1108 -178 
Q 994 -291 834 -291 
z
" transform="scale(0.015625)"/>
     </defs>
     <use xlink:href="#ComicSansMS-34"/>
     <use xlink:href="#ComicSansMS-39" x="61.035156"/>
     <use xlink:href="#ComicSansMS-2e" x="122.070312"/>
     <use xlink:href="#ComicSansMS-34" x="146.972656"/>
     <use xlink:href="#ComicSansMS-34" x="208.007812"/>
    </g>
   </g>
   <g id="text_14">
    <!-- 51.56 -->
    <g transform="translate(129.873442 252.853543) scale(0.12 -0.12)">
     <defs>
      <path id="ComicSansMS-35" d="M 1756 -197 
Q 869 -197 450 459 
Q 394 550 394 634 
Q 394 756 491 845 
Q 588 934 709 934 
Q 838 934 953 797 
Q 1119 597 1203 541 
Q 1406 403 1756 403 
Q 2297 403 2653 816 
Q 2994 1209 2994 1763 
Q 2994 2219 2844 2503 
Q 2650 2863 2247 2863 
Q 1913 2863 1700 2772 
Q 1531 2700 1359 2525 
L 1019 2153 
Q 881 2013 738 2013 
Q 613 2013 525 2102 
Q 438 2191 438 2316 
Q 438 2378 488 2872 
Q 594 3856 594 4166 
Q 594 4275 539 4404 
Q 484 4534 484 4597 
Q 484 4788 813 4788 
Q 875 4788 1001 4777 
Q 1128 4766 1191 4766 
Q 1372 4766 1734 4778 
Q 2097 4791 2278 4791 
Q 2363 4791 2534 4784 
Q 2706 4778 2791 4778 
Q 2850 4778 2962 4801 
Q 3075 4825 3131 4825 
Q 3253 4825 3347 4734 
Q 3441 4644 3441 4525 
Q 3441 4175 2700 4175 
Q 2603 4175 2456 4181 
Q 2309 4188 2278 4188 
L 1750 4178 
L 1222 4163 
Q 1222 4022 1106 3122 
Q 1534 3463 2247 3463 
Q 2934 3463 3297 2925 
Q 3603 2469 3603 1763 
Q 3603 919 3109 372 
Q 2597 -197 1756 -197 
z
" transform="scale(0.015625)"/>
      <path id="ComicSansMS-31" d="M 2200 -3 
L 1578 -3 
L 959 0 
Q 741 0 653 28 
Q 494 84 494 266 
Q 494 581 984 581 
L 1134 578 
L 1263 572 
Q 1263 722 1236 1015 
Q 1209 1309 1209 1456 
Q 1209 1853 1281 2663 
Q 1350 3459 1347 3872 
Q 928 3547 813 3547 
Q 688 3547 595 3640 
Q 503 3734 503 3856 
Q 503 4003 772 4213 
Q 941 4331 1250 4594 
Q 1525 4872 1775 4872 
Q 1984 4872 1984 4631 
Q 1984 4559 1965 4417 
Q 1947 4275 1947 4203 
Q 1947 4100 1958 3890 
Q 1969 3681 1969 3578 
Q 1969 3222 1894 2515 
Q 1819 1809 1819 1456 
Q 1819 1275 1844 1015 
Q 1869 756 1872 591 
L 2200 597 
Q 2331 597 2417 511 
Q 2503 425 2503 297 
Q 2503 166 2417 81 
Q 2331 -3 2200 -3 
z
" transform="scale(0.015625)"/>
      <path id="ComicSansMS-36" d="M 1866 -225 
Q 1050 -225 666 372 
Q 347 863 347 1681 
Q 347 3225 1600 4359 
L 1894 4656 
Q 2109 4863 2219 4863 
Q 2344 4863 2437 4773 
Q 2531 4684 2534 4563 
Q 2541 4450 2216 4128 
L 1578 3506 
Q 1325 3250 1144 2731 
Q 1416 2856 1619 2917 
Q 1822 2978 1953 2978 
Q 2684 2978 3075 2587 
Q 3466 2197 3466 1484 
Q 3466 738 3044 266 
Q 2603 -225 1866 -225 
z
M 1866 2341 
Q 1597 2341 1384 2247 
Q 1303 2209 975 2006 
Q 956 1841 956 1681 
Q 956 1122 1144 769 
Q 1381 319 1884 319 
Q 2356 319 2616 656 
Q 2856 969 2856 1484 
Q 2856 1913 2609 2127 
Q 2363 2341 1866 2341 
z
" transform="scale(0.015625)"/>
     </defs>
     <use xlink:href="#ComicSansMS-35"/>
     <use xlink:href="#ComicSansMS-31" x="61.035156"/>
     <use xlink:href="#ComicSansMS-2e" x="106.054688"/>
     <use xlink:href="#ComicSansMS-35" x="130.957031"/>
     <use xlink:href="#ComicSansMS-36" x="191.992188"/>
    </g>
   </g>
   <g id="text_15">
    <!-- 61.41 -->
    <g transform="translate(192.508127 214.058614) scale(0.12 -0.12)">
     <use xlink:href="#ComicSansMS-36"/>
     <use xlink:href="#ComicSansMS-31" x="61.035156"/>
     <use xlink:href="#ComicSansMS-2e" x="106.054688"/>
     <use xlink:href="#ComicSansMS-34" x="130.957031"/>
     <use xlink:href="#ComicSansMS-31" x="191.992188"/>
    </g>
   </g>
   <g id="text_16">
    <!-- 70.54 -->
    <g transform="translate(252.259998 178.099457) scale(0.12 -0.12)">
     <defs>
      <path id="ComicSansMS-37" d="M 3606 4081 
L 3322 3750 
Q 2916 3275 2575 2600 
L 2006 1353 
Q 1947 1216 1744 631 
Q 1581 169 1441 -59 
Q 1353 -206 1191 -206 
Q 1066 -206 970 -118 
Q 875 -31 875 91 
Q 875 209 1075 700 
L 1778 2422 
Q 2244 3444 2734 3997 
L 2794 4063 
L 1225 4094 
L 522 4113 
Q 219 4141 219 4413 
Q 219 4544 306 4628 
Q 394 4713 525 4713 
Q 919 4713 1708 4688 
Q 2497 4663 2891 4663 
L 3463 4663 
Q 3794 4663 3794 4466 
Q 3794 4319 3606 4081 
z
" transform="scale(0.015625)"/>
      <path id="ComicSansMS-30" d="M 1909 -122 
Q 959 -122 522 747 
Q 191 1416 191 2488 
Q 191 3394 622 4069 
Q 1131 4859 2006 4859 
Q 2828 4859 3288 4159 
Q 3684 3553 3684 2681 
Q 3684 1281 3240 579 
Q 2797 -122 1909 -122 
z
M 2003 4256 
Q 1422 4256 1081 3666 
Q 797 3172 797 2538 
Q 797 1509 1075 993 
Q 1353 478 1909 478 
Q 2572 478 2859 1234 
Q 3059 1759 3059 2566 
Q 3059 3413 2795 3834 
Q 2531 4256 2003 4256 
z
" transform="scale(0.015625)"/>
     </defs>
     <use xlink:href="#ComicSansMS-37"/>
     <use xlink:href="#ComicSansMS-30" x="61.035156"/>
     <use xlink:href="#ComicSansMS-2e" x="122.070312"/>
     <use xlink:href="#ComicSansMS-35" x="146.972656"/>
     <use xlink:href="#ComicSansMS-34" x="208.007812"/>
    </g>
   </g>
   <g id="text_17">
    <!-- 67.88 -->
    <g transform="translate(313.933745 188.576057) scale(0.12 -0.12)">
     <defs>
      <path id="ComicSansMS-38" d="M 1919 -169 
Q 1259 -169 853 119 
Q 391 444 381 1072 
Q 369 2081 1091 2447 
Q 534 2784 534 3406 
Q 534 3997 963 4388 
Q 1372 4763 1956 4769 
Q 3269 4781 3269 3472 
Q 3269 3097 3119 2894 
Q 2997 2725 2647 2547 
Q 3113 2313 3300 2041 
Q 3519 1722 3519 1163 
Q 3519 525 3047 163 
Q 2609 -169 1919 -169 
z
M 1947 4209 
Q 1544 4209 1331 3981 
Q 1141 3769 1144 3406 
Q 1147 2969 1863 2784 
Q 2238 2894 2400 3003 
Q 2659 3178 2659 3472 
Q 2659 3897 2469 4069 
Q 2306 4209 1947 4209 
z
M 1891 2231 
Q 1394 2000 1228 1831 
Q 969 1572 984 1100 
Q 997 709 1344 516 
Q 1597 378 1919 378 
Q 2469 378 2688 638 
Q 2863 844 2863 1263 
Q 2863 1672 2544 1922 
Q 2331 2094 1891 2231 
z
" transform="scale(0.015625)"/>
     </defs>
     <use xlink:href="#ComicSansMS-36"/>
     <use xlink:href="#ComicSansMS-37" x="61.035156"/>
     <use xlink:href="#ComicSansMS-2e" x="122.070312"/>
     <use xlink:href="#ComicSansMS-38" x="146.972656"/>
     <use xlink:href="#ComicSansMS-38" x="208.007812"/>
    </g>
   </g>
   <g id="text_18">
    <!-- 93.58 -->
    <g transform="translate(375.607492 87.354771) scale(0.12 -0.12)">
     <defs>
      <path id="ComicSansMS-33" d="M 1891 -144 
Q 1419 -144 1044 53 
Q 622 281 475 694 
Q 456 750 456 803 
Q 456 928 551 1011 
Q 647 1094 772 1094 
Q 897 1094 988 978 
L 1131 763 
Q 1244 609 1434 532 
Q 1625 456 1891 456 
Q 2231 456 2488 669 
Q 2759 894 2759 1219 
Q 2759 1691 2413 1972 
Q 2106 2216 1600 2269 
Q 1253 2303 1253 2550 
Q 1253 2734 1525 2831 
L 2272 3016 
Q 2488 3094 2597 3226 
Q 2706 3359 2709 3550 
Q 2716 3825 2497 3994 
Q 2269 4169 1856 4169 
Q 1644 4169 1444 4066 
L 1091 3844 
Q 988 3778 925 3778 
Q 800 3778 711 3873 
Q 622 3969 622 4091 
Q 622 4338 1100 4566 
Q 1516 4769 1784 4769 
Q 2456 4769 2850 4472 
Q 3272 4153 3272 3563 
Q 3272 2828 2678 2594 
Q 2625 2572 2556 2550 
Q 2972 2397 3178 2092 
Q 3384 1788 3384 1331 
Q 3384 716 2950 286 
Q 2516 -144 1891 -144 
z
" transform="scale(0.015625)"/>
     </defs>
     <use xlink:href="#ComicSansMS-39"/>
     <use xlink:href="#ComicSansMS-33" x="61.035156"/>
     <use xlink:href="#ComicSansMS-2e" x="122.070312"/>
     <use xlink:href="#ComicSansMS-35" x="146.972656"/>
     <use xlink:href="#ComicSansMS-38" x="208.007812"/>
    </g>
   </g>
   <g id="text_19">
    <!-- (II) Test of multihop ability (2,0000 facts) -->
    <g transform="translate(73.254219 59.22) scale(0.14 -0.14)">
     <defs>
      <path id="DejaVuSerif-Bold-49" d="M 300 0 
L 300 378 
L 897 378 
L 897 4288 
L 300 4288 
L 300 4666 
L 2700 4666 
L 2700 4288 
L 2100 4288 
L 2100 378 
L 2700 378 
L 2700 0 
L 300 0 
z
" transform="scale(0.015625)"/>
      <path id="DejaVuSerif-Bold-54" d="M 1159 0 
L 1159 378 
L 1778 378 
L 1778 4238 
L 500 4238 
L 500 3500 
L 72 3500 
L 72 4666 
L 4697 4666 
L 4697 3500 
L 4275 3500 
L 4275 4238 
L 2988 4238 
L 2988 378 
L 3609 378 
L 3609 0 
L 1159 0 
z
" transform="scale(0.015625)"/>
      <path id="DejaVuSerif-Bold-74" d="M 634 2944 
L 153 2944 
L 153 3322 
L 634 3322 
L 634 4353 
L 1741 4353 
L 1741 3322 
L 2663 3322 
L 2663 2944 
L 1741 2944 
L 1741 909 
Q 1741 475 1809 369 
Q 1878 263 2059 263 
Q 2259 263 2356 397 
Q 2453 531 2459 813 
L 2925 813 
Q 2897 313 2651 111 
Q 2406 -91 1806 -91 
Q 1122 -91 878 123 
Q 634 338 634 909 
L 634 2944 
z
" transform="scale(0.015625)"/>
      <path id="DejaVuSerif-Bold-66" d="M 3097 4031 
L 2747 4031 
Q 2722 4275 2605 4394 
Q 2488 4513 2272 4513 
Q 2022 4513 1909 4333 
Q 1797 4153 1797 3750 
L 1797 3322 
L 2631 3322 
L 2631 2944 
L 1797 2944 
L 1797 378 
L 2438 378 
L 2438 0 
L 219 0 
L 219 378 
L 691 378 
L 691 2944 
L 197 2944 
L 197 3322 
L 691 3322 
L 691 3738 
Q 691 4291 1044 4577 
Q 1397 4863 2081 4863 
Q 2347 4863 2600 4833 
Q 2853 4803 3097 4744 
L 3097 4031 
z
" transform="scale(0.015625)"/>
      <path id="DejaVuSerif-Bold-6d" d="M 3884 2778 
Q 4116 3109 4384 3261 
Q 4653 3413 5013 3413 
Q 5584 3413 5867 3089 
Q 6150 2766 6150 2113 
L 6150 378 
L 6625 378 
L 6625 0 
L 4647 0 
L 4647 378 
L 5044 378 
L 5044 1947 
Q 5044 2569 4948 2731 
Q 4853 2894 4594 2894 
Q 4300 2894 4137 2667 
Q 3975 2441 3975 2022 
L 3975 378 
L 4372 378 
L 4372 0 
L 2472 0 
L 2472 378 
L 2869 378 
L 2869 1947 
Q 2869 2569 2772 2731 
Q 2675 2894 2419 2894 
Q 2122 2894 1959 2667 
Q 1797 2441 1797 2022 
L 1797 378 
L 2194 378 
L 2194 0 
L 219 0 
L 219 378 
L 691 378 
L 691 2944 
L 219 2944 
L 219 3322 
L 1797 3322 
L 1797 2853 
Q 1991 3144 2241 3278 
Q 2491 3413 2834 3413 
Q 3241 3413 3494 3258 
Q 3747 3103 3884 2778 
z
" transform="scale(0.015625)"/>
      <path id="DejaVuSerif-Bold-6c" d="M 1797 378 
L 2272 378 
L 2272 0 
L 219 0 
L 219 378 
L 691 378 
L 691 4488 
L 219 4488 
L 219 4863 
L 1797 4863 
L 1797 378 
z
" transform="scale(0.015625)"/>
      <path id="DejaVuSerif-Bold-70" d="M 1728 1825 
L 1728 1497 
Q 1728 916 1876 656 
Q 2025 397 2356 397 
Q 2697 397 2836 672 
Q 2975 947 2975 1663 
Q 2975 2378 2836 2651 
Q 2697 2925 2356 2925 
Q 2025 2925 1876 2665 
Q 1728 2406 1728 1825 
z
M 622 2944 
L 147 2944 
L 147 3322 
L 1728 3322 
L 1728 2900 
Q 1869 3159 2106 3286 
Q 2344 3413 2694 3413 
Q 3403 3413 3811 2945 
Q 4219 2478 4219 1663 
Q 4219 847 3811 378 
Q 3403 -91 2694 -91 
Q 2344 -91 2106 36 
Q 1869 163 1728 422 
L 1728 -953 
L 2241 -953 
L 2241 -1331 
L 147 -1331 
L 147 -953 
L 622 -953 
L 622 2944 
z
" transform="scale(0.015625)"/>
      <path id="DejaVuSerif-Bold-61" d="M 3525 2041 
L 3525 378 
L 4000 378 
L 4000 0 
L 2419 0 
L 2419 422 
Q 2200 159 1931 34 
Q 1663 -91 1319 -91 
Q 809 -91 536 182 
Q 263 456 263 966 
Q 263 1525 655 1803 
Q 1047 2081 1838 2081 
L 2419 2081 
L 2419 2278 
Q 2419 2681 2228 2873 
Q 2038 3066 1638 3066 
Q 1306 3066 1126 2930 
Q 947 2794 872 2484 
L 519 2484 
L 519 3200 
Q 816 3306 1134 3359 
Q 1453 3413 1806 3413 
Q 2697 3413 3111 3081 
Q 3525 2750 3525 2041 
z
M 2419 1044 
L 2419 1709 
L 2003 1709 
Q 1694 1709 1528 1540 
Q 1363 1372 1363 1056 
Q 1363 741 1483 584 
Q 1603 428 1850 428 
Q 2106 428 2262 597 
Q 2419 766 2419 1044 
z
" transform="scale(0.015625)"/>
      <path id="DejaVuSerif-Bold-79" d="M 1997 -750 
Q 1847 -1116 1634 -1269 
Q 1422 -1422 1063 -1422 
Q 909 -1422 721 -1387 
Q 534 -1353 313 -1288 
L 313 -594 
L 666 -597 
Q 675 -838 779 -953 
Q 884 -1069 1094 -1069 
Q 1297 -1069 1422 -958 
Q 1547 -847 1672 -538 
L 1722 -422 
L 275 2944 
L -84 2944 
L -84 3322 
L 1831 3322 
L 1831 2944 
L 1434 2944 
L 2278 978 
L 3066 2944 
L 2625 2944 
L 2625 3322 
L 3872 3322 
L 3872 2944 
L 3469 2944 
L 1997 -750 
z
" transform="scale(0.015625)"/>
      <path id="DejaVuSerif-Bold-32" d="M 844 3513 
L 469 3513 
L 469 4519 
Q 850 4634 1223 4692 
Q 1597 4750 1978 4750 
Q 2869 4750 3367 4386 
Q 3866 4022 3866 3372 
Q 3866 2909 3591 2542 
Q 3316 2175 2541 1672 
L 1241 819 
L 3450 819 
L 3450 1369 
L 3878 1369 
L 3878 0 
L 428 0 
L 428 763 
L 1119 1241 
Q 2003 1850 2297 2278 
Q 2591 2706 2591 3278 
Q 2591 3819 2367 4101 
Q 2144 4384 1716 4384 
Q 1347 4384 1125 4161 
Q 903 3938 844 3513 
z
" transform="scale(0.015625)"/>
      <path id="DejaVuSerif-Bold-2c" d="M 84 -616 
Q 409 -353 562 -28 
Q 716 297 716 728 
L 716 997 
L 1606 997 
L 1606 972 
Q 1606 281 1317 -217 
Q 1028 -716 428 -1056 
L 84 -616 
z
" transform="scale(0.015625)"/>
      <path id="DejaVuSerif-Bold-30" d="M 2228 275 
Q 2603 275 2742 615 
Q 2881 956 2881 2328 
Q 2881 3691 2742 4037 
Q 2603 4384 2228 4384 
Q 1853 4384 1714 4043 
Q 1575 3703 1575 2328 
Q 1575 956 1714 615 
Q 1853 275 2228 275 
z
M 2228 -91 
Q 1294 -91 797 532 
Q 300 1156 300 2328 
Q 300 3500 797 4125 
Q 1294 4750 2228 4750 
Q 3159 4750 3656 4125 
Q 4153 3500 4153 2328 
Q 4153 1156 3656 532 
Q 3159 -91 2228 -91 
z
" transform="scale(0.015625)"/>
     </defs>
     <use xlink:href="#DejaVuSerif-Bold-28"/>
     <use xlink:href="#DejaVuSerif-Bold-49" x="47.314453"/>
     <use xlink:href="#DejaVuSerif-Bold-49" x="94.091797"/>
     <use xlink:href="#DejaVuSerif-Bold-29" x="140.869141"/>
     <use xlink:href="#DejaVuSerif-Bold-20" x="188.183594"/>
     <use xlink:href="#DejaVuSerif-Bold-54" x="222.998047"/>
     <use xlink:href="#DejaVuSerif-Bold-65" x="285.912109"/>
     <use xlink:href="#DejaVuSerif-Bold-73" x="349.535156"/>
     <use xlink:href="#DejaVuSerif-Bold-74" x="405.833984"/>
     <use xlink:href="#DejaVuSerif-Bold-20" x="452.025391"/>
     <use xlink:href="#DejaVuSerif-Bold-6f" x="486.839844"/>
     <use xlink:href="#DejaVuSerif-Bold-66" x="553.539062"/>
     <use xlink:href="#DejaVuSerif-Bold-20" x="596.556641"/>
     <use xlink:href="#DejaVuSerif-Bold-6d" x="631.371094"/>
     <use xlink:href="#DejaVuSerif-Bold-75" x="737.181641"/>
     <use xlink:href="#DejaVuSerif-Bold-6c" x="809.886719"/>
     <use xlink:href="#DejaVuSerif-Bold-74" x="847.875"/>
     <use xlink:href="#DejaVuSerif-Bold-69" x="894.066406"/>
     <use xlink:href="#DejaVuSerif-Bold-68" x="932.054688"/>
     <use xlink:href="#DejaVuSerif-Bold-6f" x="1004.759766"/>
     <use xlink:href="#DejaVuSerif-Bold-70" x="1071.458984"/>
     <use xlink:href="#DejaVuSerif-Bold-20" x="1141.380859"/>
     <use xlink:href="#DejaVuSerif-Bold-61" x="1176.195312"/>
     <use xlink:href="#DejaVuSerif-Bold-62" x="1240.990234"/>
     <use xlink:href="#DejaVuSerif-Bold-69" x="1310.912109"/>
     <use xlink:href="#DejaVuSerif-Bold-6c" x="1348.900391"/>
     <use xlink:href="#DejaVuSerif-Bold-69" x="1386.888672"/>
     <use xlink:href="#DejaVuSerif-Bold-74" x="1424.876953"/>
     <use xlink:href="#DejaVuSerif-Bold-79" x="1471.068359"/>
     <use xlink:href="#DejaVuSerif-Bold-20" x="1529.173828"/>
     <use xlink:href="#DejaVuSerif-Bold-28" x="1563.988281"/>
     <use xlink:href="#DejaVuSerif-Bold-32" x="1611.302734"/>
     <use xlink:href="#DejaVuSerif-Bold-2c" x="1680.882812"/>
     <use xlink:href="#DejaVuSerif-Bold-30" x="1715.697266"/>
     <use xlink:href="#DejaVuSerif-Bold-30" x="1785.277344"/>
     <use xlink:href="#DejaVuSerif-Bold-30" x="1854.857422"/>
     <use xlink:href="#DejaVuSerif-Bold-30" x="1924.4375"/>
     <use xlink:href="#DejaVuSerif-Bold-20" x="1994.017578"/>
     <use xlink:href="#DejaVuSerif-Bold-66" x="2028.832031"/>
     <use xlink:href="#DejaVuSerif-Bold-61" x="2071.849609"/>
     <use xlink:href="#DejaVuSerif-Bold-63" x="2136.644531"/>
     <use xlink:href="#DejaVuSerif-Bold-74" x="2197.533203"/>
     <use xlink:href="#DejaVuSerif-Bold-73" x="2243.724609"/>
     <use xlink:href="#DejaVuSerif-Bold-29" x="2300.023438"/>
    </g>
   </g>
  </g>
  <g id="legend_1">
   <g id="patch_16">
    <path d="M 59.491172 83.113125 
L 85.491172 83.113125 
L 85.491172 74.013125 
L 59.491172 74.013125 
z
" style="fill: url(#h126a8cbf40); stroke: #ff0000; stroke-width: 2; stroke-linejoin: miter"/>
   </g>
   <g id="text_20">
    <!-- RoME -->
    <g transform="translate(95.891172 83.113125) scale(0.13 -0.13)">
     <defs>
      <path id="ComicSansMS-52" d="M 3519 -34 
Q 3400 -34 3297 66 
Q 2263 1088 997 1441 
L 1022 828 
L 1038 213 
Q 1038 75 948 -17 
Q 859 -109 725 -109 
Q 591 -109 502 -17 
Q 413 75 413 213 
Q 413 459 389 948 
Q 366 1438 366 1684 
Q 366 1972 428 2540 
Q 491 3109 491 3394 
Q 491 3553 461 3865 
Q 431 4178 431 4338 
Q 431 4516 531 4650 
Q 650 4816 859 4800 
L 1613 4741 
Q 2041 4688 2334 4531 
Q 3600 3859 3600 2891 
Q 3600 2416 3169 2050 
Q 2822 1756 2303 1603 
Q 3275 1081 3756 503 
Q 3838 403 3838 291 
Q 3838 159 3742 62 
Q 3647 -34 3519 -34 
z
M 1528 4097 
L 1066 4134 
L 1097 3756 
Q 1119 3525 1119 3378 
Q 1119 3128 1078 2756 
L 1013 2134 
Q 1056 2134 1148 2131 
Q 1241 2128 1288 2128 
Q 2084 2128 2481 2341 
Q 2656 2438 2806 2594 
Q 2972 2769 2972 2891 
Q 2972 3325 2478 3700 
Q 2025 4044 1528 4097 
z
" transform="scale(0.015625)"/>
      <path id="ComicSansMS-6f" d="M 1606 -184 
Q 1081 -184 703 203 
Q 281 634 259 1363 
Q 241 2069 616 2606 
Q 1053 3241 1834 3241 
Q 2459 3241 2781 2669 
Q 3038 2206 3028 1556 
Q 3019 863 2666 372 
Q 2266 -184 1606 -184 
z
M 1794 2606 
Q 1334 2609 1078 2169 
Q 875 1816 875 1363 
Q 875 909 1122 656 
Q 1328 447 1606 447 
Q 1931 447 2166 684 
Q 2431 947 2447 1394 
Q 2491 2603 1794 2606 
z
" transform="scale(0.015625)"/>
      <path id="ComicSansMS-4d" d="M 5078 -259 
Q 4909 -259 4800 -84 
Q 4706 66 4631 416 
L 4519 953 
Q 4391 1453 4113 3159 
L 3488 1275 
L 3303 681 
Q 3191 328 3069 103 
Q 2938 -134 2716 -134 
Q 2531 -134 2425 66 
Q 2356 197 2300 400 
L 2209 747 
Q 1894 1850 1653 3109 
L 1541 2550 
L 1138 900 
Q 1113 609 981 41 
Q 888 -203 672 -203 
Q 519 -203 428 -94 
Q 350 0 350 138 
Q 350 659 566 1419 
L 909 2678 
L 1091 3663 
Q 1228 4353 1381 4566 
Q 1506 4747 1691 4747 
Q 1894 4747 1994 4516 
Q 2116 4238 2256 3381 
Q 2422 2353 2772 1156 
Q 3234 2359 3572 3663 
L 3666 4119 
Q 3722 4394 3813 4563 
Q 3934 4794 4147 4794 
Q 4416 4794 4556 4275 
Q 4606 4097 4678 3538 
Q 4863 2125 5138 1125 
L 5291 588 
Q 5409 156 5409 56 
Q 5409 -78 5307 -168 
Q 5206 -259 5078 -259 
z
" transform="scale(0.015625)"/>
      <path id="ComicSansMS-45" d="M 3484 4206 
Q 3441 4206 3388 4222 
Q 2859 4372 2369 4372 
Q 2113 4372 1809 4325 
Q 1506 4278 1156 4181 
Q 1184 3978 1184 3856 
Q 1184 3422 1131 2663 
L 2500 2794 
Q 3103 2856 3241 2856 
Q 3378 2856 3472 2768 
Q 3566 2681 3566 2534 
Q 3566 2250 3278 2216 
L 2534 2150 
L 1091 2019 
Q 1078 1797 1070 1598 
Q 1063 1400 1063 1228 
Q 1063 538 1163 416 
Q 1238 328 1653 328 
Q 1847 328 2236 339 
Q 2625 350 2822 350 
Q 2884 350 3006 370 
Q 3128 391 3188 391 
Q 3519 391 3519 66 
Q 3519 -197 3253 -250 
Q 2959 -309 1981 -309 
Q 1013 -309 738 -53 
Q 438 225 438 1228 
Q 438 1428 447 1665 
Q 456 1903 472 2178 
Q 438 2250 438 2331 
Q 438 2438 497 2522 
Q 559 3425 559 3856 
Q 559 3972 528 4195 
Q 497 4419 497 4534 
Q 497 4906 809 4906 
Q 941 4906 1034 4816 
Q 1409 4916 1742 4966 
Q 2075 5016 2369 5016 
Q 3128 5016 3581 4834 
Q 3791 4750 3791 4534 
Q 3791 4409 3709 4313 
Q 3619 4206 3484 4206 
z
" transform="scale(0.015625)"/>
     </defs>
     <use xlink:href="#ComicSansMS-52"/>
     <use xlink:href="#ComicSansMS-6f" x="62.841797"/>
     <use xlink:href="#ComicSansMS-4d" x="115.429688"/>
     <use xlink:href="#ComicSansMS-45" x="203.710938"/>
    </g>
   </g>
   <g id="patch_17">
    <path d="M 59.491172 103.515 
L 85.491172 103.515 
L 85.491172 94.415 
L 59.491172 94.415 
z
" style="fill: url(#h0f2c87c98b); stroke: #0000ff; stroke-width: 2; stroke-linejoin: miter"/>
   </g>
   <g id="text_21">
    <!-- MEMIT -->
    <g transform="translate(95.891172 103.515) scale(0.13 -0.13)">
     <defs>
      <path id="ComicSansMS-49" d="M 2991 3894 
Q 2791 3894 2488 3934 
L 1984 4000 
Q 1913 3091 1913 2263 
Q 1913 2044 1925 1722 
Q 1938 1400 1938 1181 
Q 1938 888 1916 647 
L 2900 659 
Q 3031 659 3120 567 
Q 3209 475 3209 341 
Q 3209 203 3120 111 
Q 3031 19 2900 19 
Q 2725 19 2375 11 
Q 2025 3 1850 3 
Q 1644 3 1233 -55 
Q 822 -113 613 -113 
Q 481 -113 392 -20 
Q 303 72 303 206 
Q 303 341 392 434 
Q 481 528 613 528 
Q 816 528 1284 594 
Q 1316 847 1316 1172 
Q 1316 1388 1295 1698 
Q 1275 2009 1275 2222 
Q 1275 2944 1363 4025 
L 956 4013 
L 550 4003 
Q 416 4003 325 4093 
Q 234 4184 234 4325 
Q 234 4616 528 4644 
Q 781 4669 1475 4669 
Q 2097 4669 3034 4534 
Q 3313 4494 3313 4200 
Q 3313 4053 3206 3966 
Q 3113 3894 2991 3894 
z
" transform="scale(0.015625)"/>
      <path id="ComicSansMS-54" d="M 4256 3947 
Q 4025 3947 3544 3984 
Q 3075 4019 2831 4016 
L 2609 4016 
Q 2619 3584 2694 2616 
Q 2763 1713 2763 1213 
Q 2763 1103 2784 881 
Q 2806 659 2806 547 
Q 2806 334 2738 181 
Q 2650 -25 2466 -25 
Q 2341 -25 2241 62 
Q 2141 150 2141 288 
Q 2141 334 2156 428 
Q 2172 522 2172 569 
Q 2172 722 2151 1028 
Q 2131 1334 2131 1491 
Q 2131 1938 2059 2747 
Q 1984 3622 1975 4003 
L 1691 4000 
Q 1006 4000 616 4100 
Q 363 4166 363 4409 
Q 363 4538 444 4634 
Q 538 4744 684 4734 
Q 794 4728 1184 4678 
Q 1497 4641 1691 4641 
Q 1878 4641 2259 4648 
Q 2641 4656 2828 4656 
Q 3069 4656 3542 4622 
Q 4016 4588 4256 4588 
Q 4391 4588 4481 4495 
Q 4572 4403 4572 4266 
Q 4572 4131 4481 4039 
Q 4391 3947 4256 3947 
z
" transform="scale(0.015625)"/>
     </defs>
     <use xlink:href="#ComicSansMS-4d"/>
     <use xlink:href="#ComicSansMS-45" x="88.28125"/>
     <use xlink:href="#ComicSansMS-4d" x="150.732422"/>
     <use xlink:href="#ComicSansMS-49" x="239.013672"/>
     <use xlink:href="#ComicSansMS-54" x="293.652344"/>
    </g>
   </g>
   <g id="patch_18">
    <path d="M 168.902422 83.113125 
L 194.902422 83.113125 
L 194.902422 74.013125 
L 168.902422 74.013125 
z
" style="fill: url(#h667ac7ffba); stroke: #008000; stroke-width: 2; stroke-linejoin: miter"/>
   </g>
   <g id="text_22">
    <!-- PMET -->
    <g transform="translate(205.302422 83.113125) scale(0.13 -0.13)">
     <defs>
      <path id="ComicSansMS-50" d="M 1291 1834 
Q 1203 1834 909 1875 
Q 884 1403 884 222 
Q 884 97 803 11 
Q 722 -75 600 -75 
Q 475 -75 394 11 
Q 313 97 313 222 
L 313 1141 
Q 313 1600 369 2434 
Q 431 3338 438 3728 
L 438 4159 
Q 438 4469 475 4609 
Q 547 4884 781 4847 
Q 881 4878 1065 4893 
Q 1250 4909 1519 4909 
Q 2091 4909 2591 4519 
Q 3141 4088 3141 3481 
Q 3141 2706 2553 2247 
Q 2028 1834 1291 1834 
z
M 1447 4316 
Q 1309 4316 1201 4309 
Q 1094 4303 1019 4291 
L 1013 3716 
L 947 2472 
L 1291 2431 
Q 1816 2431 2175 2697 
Q 2569 2988 2569 3481 
Q 2569 3831 2194 4084 
Q 1847 4316 1447 4316 
z
" transform="scale(0.015625)"/>
     </defs>
     <use xlink:href="#ComicSansMS-50"/>
     <use xlink:href="#ComicSansMS-4d" x="52.050781"/>
     <use xlink:href="#ComicSansMS-45" x="140.332031"/>
     <use xlink:href="#ComicSansMS-54" x="202.783203"/>
    </g>
   </g>
   <g id="patch_19">
    <path d="M 168.902422 103.515 
L 194.902422 103.515 
L 194.902422 94.415 
L 168.902422 94.415 
z
" style="fill: url(#h3db17dea75); stroke: #00ffff; stroke-width: 2; stroke-linejoin: miter"/>
   </g>
   <g id="text_23">
    <!-- GLAME -->
    <g transform="translate(205.302422 103.515) scale(0.13 -0.13)">
     <defs>
      <path id="ComicSansMS-47" d="M 4063 1891 
Q 3869 931 3248 357 
Q 2628 -216 1784 -216 
Q 1016 -216 631 214 
Q 247 644 247 1503 
Q 247 2313 630 3170 
Q 1013 4028 1613 4556 
Q 2013 4909 2459 4909 
Q 2744 4909 3209 4722 
Q 3778 4497 3778 4225 
Q 3778 4097 3684 3997 
Q 3591 3897 3459 3897 
Q 3391 3897 3266 3975 
Q 2788 4266 2459 4266 
Q 2225 4266 1969 4022 
Q 1841 3900 1600 3578 
Q 878 2622 878 1503 
Q 878 916 1059 681 
Q 1256 425 1784 425 
Q 2344 425 2756 778 
Q 3191 1153 3363 1850 
Q 2497 1806 1878 1516 
Q 1806 1481 1738 1481 
Q 1600 1481 1509 1588 
Q 1425 1684 1425 1813 
Q 1425 1984 1591 2088 
Q 2266 2500 3919 2500 
Q 4053 2500 4143 2409 
Q 4234 2319 4234 2181 
Q 4234 1978 4063 1891 
z
" transform="scale(0.015625)"/>
      <path id="ComicSansMS-4c" d="M 3203 128 
Q 2850 -38 2094 -169 
Q 1397 -291 956 -291 
Q 641 -291 503 -194 
Q 316 -63 316 288 
L 378 1322 
Q 459 2753 459 4497 
Q 459 4631 548 4725 
Q 638 4819 769 4819 
Q 903 4819 992 4725 
Q 1081 4631 1081 4497 
Q 1081 2731 997 1284 
L 956 809 
Q 931 550 938 350 
Q 1753 341 3000 734 
Q 3053 750 3100 750 
Q 3234 750 3325 644 
Q 3403 547 3403 422 
Q 3403 222 3203 128 
z
" transform="scale(0.015625)"/>
      <path id="ComicSansMS-41" d="M 3906 -94 
Q 3619 -94 3406 644 
Q 3325 925 3203 1628 
Q 2884 1584 2369 1472 
L 1538 1300 
Q 1381 891 1003 103 
Q 903 -72 731 -72 
Q 606 -72 507 18 
Q 409 109 409 244 
Q 409 394 881 1384 
Q 828 1466 828 1572 
Q 828 1825 1134 1897 
Q 1491 2566 2034 3434 
Q 2775 4619 2956 4619 
Q 3203 4619 3294 4275 
L 3491 3225 
L 3956 1053 
L 4134 559 
Q 4225 306 4225 222 
Q 4225 88 4128 -3 
Q 4031 -94 3906 -94 
z
M 2803 3478 
L 1909 2038 
Q 2288 2134 3056 2272 
L 2803 3478 
z
" transform="scale(0.015625)"/>
     </defs>
     <use xlink:href="#ComicSansMS-47"/>
     <use xlink:href="#ComicSansMS-4c" x="67.96875"/>
     <use xlink:href="#ComicSansMS-41" x="123.046875"/>
     <use xlink:href="#ComicSansMS-4d" x="196.191406"/>
     <use xlink:href="#ComicSansMS-45" x="284.472656"/>
    </g>
   </g>
   <g id="patch_20">
    <path d="M 276.402266 83.113125 
L 302.402266 83.113125 
L 302.402266 74.013125 
L 276.402266 74.013125 
z
" style="fill: url(#h3de9d64709); stroke: #00bfff; stroke-width: 2; stroke-linejoin: miter"/>
   </g>
   <g id="text_24">
    <!-- AlphaEdit -->
    <g transform="translate(312.802266 83.113125) scale(0.13 -0.13)">
     <defs>
      <path id="ComicSansMS-6c" d="M 1228 2456 
L 1181 903 
Q 1181 656 1156 178 
Q 1125 -134 850 -134 
Q 544 -134 544 184 
Q 544 563 578 1320 
Q 613 2078 613 2456 
Q 613 2950 628 3586 
Q 644 4222 644 4716 
Q 644 5028 950 5028 
Q 1259 5028 1259 4716 
Q 1259 4222 1243 3586 
Q 1228 2950 1228 2456 
z
" transform="scale(0.015625)"/>
      <path id="ComicSansMS-70" d="M 1763 -109 
Q 1450 -109 1075 -9 
L 1069 -1503 
Q 1069 -1641 983 -1728 
Q 897 -1816 763 -1816 
Q 628 -1816 542 -1728 
Q 456 -1641 456 -1503 
L 466 -253 
L 466 994 
Q 456 1678 419 2241 
L 372 2875 
Q 372 3097 453 3250 
Q 547 3434 725 3434 
Q 847 3434 930 3348 
Q 1013 3263 1013 3138 
Q 1013 3109 1003 3034 
Q 988 2938 981 2856 
Q 1250 3041 1500 3133 
Q 1750 3225 1978 3225 
Q 2619 3225 2916 2656 
Q 3150 2206 3150 1466 
Q 3150 791 2788 353 
Q 2403 -109 1763 -109 
z
M 1978 2600 
Q 1691 2600 1459 2472 
Q 1294 2381 1041 2141 
Q 1081 1431 1081 650 
Q 1422 519 1763 519 
Q 2153 519 2359 809 
Q 2538 1063 2538 1466 
Q 2538 2034 2398 2317 
Q 2259 2600 1978 2600 
z
" transform="scale(0.015625)"/>
      <path id="ComicSansMS-68" d="M 3050 -194 
Q 2828 -194 2759 44 
Q 2688 300 2628 772 
Q 2572 1225 2572 1516 
Q 2572 1597 2580 1762 
Q 2588 1928 2588 2009 
Q 2588 2597 2294 2597 
Q 1897 2597 1584 2238 
Q 1425 2053 1147 1534 
Q 1147 344 1047 125 
Q 959 -69 775 -69 
Q 647 -69 550 18 
Q 453 106 453 231 
Q 453 275 481 369 
Q 506 447 516 825 
L 525 1288 
L 534 3584 
Q 556 3972 556 4106 
Q 556 4266 526 4408 
Q 497 4550 497 4703 
Q 497 4834 587 4920 
Q 678 5006 809 5006 
Q 1066 5006 1109 4731 
Q 1159 4428 1159 4184 
Q 1159 3856 1138 3500 
Q 1119 3159 1122 2816 
L 1125 2541 
Q 1381 2884 1673 3054 
Q 1966 3225 2294 3225 
Q 2813 3225 3006 2888 
Q 3144 2650 3163 2088 
L 3188 1491 
L 3250 841 
Q 3294 475 3356 197 
Q 3369 144 3369 106 
Q 3369 -22 3275 -108 
Q 3181 -194 3050 -194 
z
" transform="scale(0.015625)"/>
      <path id="ComicSansMS-61" d="M 2875 -206 
Q 2816 -206 2659 -69 
Q 2519 59 2450 159 
Q 2150 -3 1922 -86 
Q 1694 -169 1541 -169 
Q 809 -169 475 244 
Q 159 631 159 1431 
Q 159 2188 679 2725 
Q 1200 3263 1922 3263 
Q 2194 3263 2531 3122 
Q 2956 2947 2956 2700 
Q 2956 2616 2894 2550 
Q 2863 2431 2845 2159 
Q 2828 1888 2825 1463 
Q 2822 1075 2878 850 
Q 2909 713 3075 300 
Q 3097 244 3147 134 
L 3166 81 
Q 3166 -44 3078 -125 
Q 2991 -206 2875 -206 
z
M 2225 1966 
Q 2225 2100 2242 2258 
Q 2259 2416 2294 2594 
Q 2178 2653 2095 2681 
Q 2013 2709 1963 2709 
Q 1478 2709 1126 2314 
Q 775 1919 775 1403 
Q 775 891 956 634 
Q 1138 378 1500 378 
Q 1800 378 2009 488 
Q 2122 547 2325 725 
Q 2225 1553 2225 1966 
z
" transform="scale(0.015625)"/>
      <path id="ComicSansMS-64" d="M 3313 2759 
Q 3275 2300 3275 1841 
Q 3275 800 3372 269 
Q 3378 225 3378 197 
Q 3378 72 3290 -9 
Q 3203 -91 3088 -91 
Q 2894 -91 2803 191 
Q 2578 25 2336 -59 
Q 2094 -144 1831 -144 
Q 1184 -144 759 288 
Q 322 728 322 1419 
Q 322 2253 764 2756 
Q 1206 3259 1913 3259 
Q 2275 3259 2472 3147 
L 2766 2931 
Q 2809 4247 2869 4703 
Q 2909 4981 3153 4981 
Q 3438 4981 3438 4678 
Q 3438 4244 3313 2759 
z
M 1925 2678 
Q 1400 2678 1137 2367 
Q 875 2056 875 1431 
Q 875 1028 1161 737 
Q 1447 447 1831 447 
Q 2094 447 2275 544 
Q 2381 600 2622 803 
Q 2669 844 2713 900 
L 2703 1441 
L 2706 1803 
L 2713 2172 
Q 2594 2425 2397 2551 
Q 2200 2678 1925 2678 
z
" transform="scale(0.015625)"/>
      <path id="ComicSansMS-69" d="M 1031 3956 
Q 881 3956 772 4062 
Q 663 4169 663 4319 
Q 663 4469 772 4575 
Q 881 4681 1031 4681 
Q 1181 4681 1289 4575 
Q 1397 4469 1397 4319 
Q 1397 4169 1289 4062 
Q 1181 3956 1031 3956 
z
M 1172 1419 
Q 1172 1231 1183 857 
Q 1194 484 1194 297 
Q 1194 159 1109 71 
Q 1025 -16 888 -16 
Q 753 -16 667 71 
Q 581 159 581 297 
Q 581 484 570 857 
Q 559 1231 559 1419 
Q 559 1713 590 2152 
Q 622 2591 622 2884 
Q 622 3025 708 3112 
Q 794 3200 928 3200 
Q 1063 3200 1148 3112 
Q 1234 3025 1234 2884 
Q 1234 2591 1203 2152 
Q 1172 1713 1172 1419 
z
" transform="scale(0.015625)"/>
      <path id="ComicSansMS-74" d="M 2525 2663 
Q 2459 2663 2370 2669 
Q 2281 2675 2216 2675 
Q 2144 2675 1791 2628 
L 1850 781 
L 1853 644 
L 1856 484 
Q 1869 -200 1528 -200 
Q 1403 -200 1311 -119 
Q 1219 -38 1219 84 
Q 1219 203 1228 440 
Q 1238 678 1238 797 
L 1175 2622 
Q 947 2631 481 2675 
Q 203 2713 203 2984 
Q 203 3122 287 3212 
Q 372 3303 503 3303 
L 1159 3250 
Q 1159 3409 1145 3676 
Q 1131 3944 1131 4063 
Q 1131 4194 1222 4280 
Q 1313 4366 1444 4366 
Q 1725 4366 1772 3906 
Q 1781 3791 1781 3628 
L 1775 3447 
L 1772 3253 
Q 2159 3303 2216 3303 
Q 2541 3303 2641 3272 
Q 2831 3209 2831 2978 
Q 2831 2841 2745 2752 
Q 2659 2663 2525 2663 
z
" transform="scale(0.015625)"/>
     </defs>
     <use xlink:href="#ComicSansMS-41"/>
     <use xlink:href="#ComicSansMS-6c" x="73.144531"/>
     <use xlink:href="#ComicSansMS-70" x="100.537109"/>
     <use xlink:href="#ComicSansMS-68" x="154.003906"/>
     <use xlink:href="#ComicSansMS-61" x="211.767578"/>
     <use xlink:href="#ComicSansMS-45" x="262.939453"/>
     <use xlink:href="#ComicSansMS-64" x="325.390625"/>
     <use xlink:href="#ComicSansMS-69" x="384.130859"/>
     <use xlink:href="#ComicSansMS-74" x="412.158203"/>
    </g>
   </g>
   <g id="patch_21">
    <path d="M 276.402266 103.515 
L 302.402266 103.515 
L 302.402266 94.415 
L 276.402266 94.415 
z
" style="fill: url(#h032c7294ec); stroke: #800080; stroke-width: 2; stroke-linejoin: miter"/>
   </g>
   <g id="text_25">
    <!-- CoT2Edit -->
    <g transform="translate(312.802266 103.515) scale(0.13 -0.13)">
     <defs>
      <path id="ComicSansMS-43" d="M 3450 3506 
Q 3250 3506 3150 3741 
Q 3063 3941 2988 3984 
Q 2922 4019 2663 4019 
Q 2209 4019 1656 3325 
Q 906 2394 906 1559 
Q 906 1156 1166 866 
Q 1431 566 1806 566 
Q 2128 566 2453 731 
Q 2634 825 3009 1100 
Q 3188 1231 3278 1231 
Q 3413 1231 3503 1129 
Q 3594 1028 3594 903 
Q 3594 763 3475 656 
Q 2650 -75 1806 -75 
Q 1159 -75 713 422 
Q 281 903 281 1559 
Q 281 2619 1169 3731 
Q 1909 4659 2663 4659 
Q 2816 4659 2937 4645 
Q 3059 4631 3153 4600 
Q 3263 4759 3438 4759 
Q 3653 4759 3709 4475 
Q 3759 4222 3759 3853 
Q 3759 3725 3691 3628 
Q 3606 3506 3450 3506 
z
" transform="scale(0.015625)"/>
      <path id="ComicSansMS-32" d="M 3150 -6 
Q 3072 -6 2930 42 
Q 2788 91 2713 91 
Q 2553 91 2234 72 
Q 1916 53 1753 53 
Q 1631 53 1392 22 
Q 1153 -9 1031 -9 
Q 997 -9 931 3 
Q 866 16 831 16 
Q 616 16 550 225 
Q 513 334 513 600 
Q 513 1328 909 1772 
Q 1091 1975 1888 2522 
Q 2334 2828 2484 3000 
Q 2753 3300 2753 3703 
Q 2753 3903 2494 4059 
Q 2266 4200 2047 4200 
Q 1759 4200 1500 4034 
L 1053 3684 
Q 919 3578 838 3578 
Q 516 3578 516 3834 
Q 516 3981 634 4088 
Q 1000 4431 1269 4584 
Q 1647 4800 2047 4800 
Q 2553 4800 2950 4525 
Q 3394 4216 3394 3731 
Q 3394 3413 3303 3144 
Q 3213 2875 3028 2653 
Q 2794 2372 2234 2025 
Q 1647 1656 1463 1466 
Q 1116 1106 1122 594 
L 1766 653 
Q 2428 691 2713 691 
Q 2950 691 3163 609 
Q 3444 500 3444 306 
Q 3444 184 3359 89 
Q 3275 -6 3150 -6 
z
" transform="scale(0.015625)"/>
     </defs>
     <use xlink:href="#ComicSansMS-43"/>
     <use xlink:href="#ComicSansMS-6f" x="60.253906"/>
     <use xlink:href="#ComicSansMS-54" x="112.841797"/>
     <use xlink:href="#ComicSansMS-32" x="180.810547"/>
     <use xlink:href="#ComicSansMS-45" x="241.845703"/>
     <use xlink:href="#ComicSansMS-64" x="304.296875"/>
     <use xlink:href="#ComicSansMS-69" x="363.037109"/>
     <use xlink:href="#ComicSansMS-74" x="391.064453"/>
    </g>
   </g>
  </g>
 </g>
 <defs>
  <clipPath id="p72518c578a">
   <rect x="56.09" y="65.22" width="362.95" height="275.7"/>
  </clipPath>
 </defs>
 <defs>
  <pattern id="h126a8cbf40" patternUnits="userSpaceOnUse" x="0" y="0" width="72" height="72">
   <rect x="0" y="0" width="73" height="73" fill="none"/>
   <path d="M -36 36 
L 36 -36 
M -32 40 
L 40 -32 
M -28 44 
L 44 -28 
M -24 48 
L 48 -24 
M -20 52 
L 52 -20 
M -16 56 
L 56 -16 
M -12 60 
L 60 -12 
M -8 64 
L 64 -8 
M -4 68 
L 68 -4 
M 0 72 
L 72 0 
M 4 76 
L 76 4 
M 8 80 
L 80 8 
M 12 84 
L 84 12 
M 16 88 
L 88 16 
M 20 92 
L 92 20 
M 24 96 
L 96 24 
M 28 100 
L 100 28 
M 32 104 
L 104 32 
M 36 108 
L 108 36 
" style="fill: #ff0000; stroke: #ff0000; stroke-width: 1.0; stroke-linecap: butt; stroke-linejoin: miter"/>
  </pattern>
  <pattern id="h0f2c87c98b" patternUnits="userSpaceOnUse" x="0" y="0" width="72" height="72">
   <rect x="0" y="0" width="73" height="73" fill="none"/>
   <path d="M -36 36 
L 36 -36 
M -30 42 
L 42 -30 
M -24 48 
L 48 -24 
M -18 54 
L 54 -18 
M -12 60 
L 60 -12 
M -6 66 
L 66 -6 
M 0 72 
L 72 0 
M 6 78 
L 78 6 
M 12 84 
L 84 12 
M 18 90 
L 90 18 
M 24 96 
L 96 24 
M 30 102 
L 102 30 
M 36 108 
L 108 36 
M -36 36 
L 36 108 
M -30 30 
L 42 102 
M -24 24 
L 48 96 
M -18 18 
L 54 90 
M -12 12 
L 60 84 
M -6 6 
L 66 78 
M 0 0 
L 72 72 
M 6 -6 
L 78 66 
M 12 -12 
L 84 60 
M 18 -18 
L 90 54 
M 24 -24 
L 96 48 
M 30 -30 
L 102 42 
M 36 -36 
L 108 36 
" style="fill: #0000ff; stroke: #0000ff; stroke-width: 1.0; stroke-linecap: butt; stroke-linejoin: miter"/>
  </pattern>
  <pattern id="h667ac7ffba" patternUnits="userSpaceOnUse" x="0" y="0" width="72" height="72">
   <rect x="0" y="0" width="73" height="73" fill="none"/>
   <path d="M 0 69 
L 72 69 
M 0 63 
L 72 63 
M 0 57 
L 72 57 
M 0 51 
L 72 51 
M 0 45 
L 72 45 
M 0 39 
L 72 39 
M 0 33 
L 72 33 
M 0 27 
L 72 27 
M 0 21 
L 72 21 
M 0 15 
L 72 15 
M 0 9 
L 72 9 
M 0 3 
L 72 3 
M 3 72 
L 3 0 
M 9 72 
L 9 0 
M 15 72 
L 15 0 
M 21 72 
L 21 0 
M 27 72 
L 27 0 
M 33 72 
L 33 0 
M 39 72 
L 39 0 
M 45 72 
L 45 0 
M 51 72 
L 51 0 
M 57 72 
L 57 0 
M 63 72 
L 63 0 
M 69 72 
L 69 0 
" style="fill: #008000; stroke: #008000; stroke-width: 1.0; stroke-linecap: butt; stroke-linejoin: miter"/>
  </pattern>
  <pattern id="h3db17dea75" patternUnits="userSpaceOnUse" x="0" y="0" width="72" height="72">
   <rect x="0" y="0" width="73" height="73" fill="none"/>
   <path d="M -36 36 
L 36 -36 
M -32 40 
L 40 -32 
M -28 44 
L 44 -28 
M -24 48 
L 48 -24 
M -20 52 
L 52 -20 
M -16 56 
L 56 -16 
M -12 60 
L 60 -12 
M -8 64 
L 64 -8 
M -4 68 
L 68 -4 
M 0 72 
L 72 0 
M 4 76 
L 76 4 
M 8 80 
L 80 8 
M 12 84 
L 84 12 
M 16 88 
L 88 16 
M 20 92 
L 92 20 
M 24 96 
L 96 24 
M 28 100 
L 100 28 
M 32 104 
L 104 32 
M 36 108 
L 108 36 
" style="fill: #00ffff; stroke: #00ffff; stroke-width: 1.0; stroke-linecap: butt; stroke-linejoin: miter"/>
  </pattern>
  <pattern id="h3de9d64709" patternUnits="userSpaceOnUse" x="0" y="0" width="72" height="72">
   <rect x="0" y="0" width="73" height="73" fill="none"/>
   <path d="M -36 36 
L 36 -36 
M -30 42 
L 42 -30 
M -24 48 
L 48 -24 
M -18 54 
L 54 -18 
M -12 60 
L 60 -12 
M -6 66 
L 66 -6 
M 0 72 
L 72 0 
M 6 78 
L 78 6 
M 12 84 
L 84 12 
M 18 90 
L 90 18 
M 24 96 
L 96 24 
M 30 102 
L 102 30 
M 36 108 
L 108 36 
M -36 36 
L 36 108 
M -30 30 
L 42 102 
M -24 24 
L 48 96 
M -18 18 
L 54 90 
M -12 12 
L 60 84 
M -6 6 
L 66 78 
M 0 0 
L 72 72 
M 6 -6 
L 78 66 
M 12 -12 
L 84 60 
M 18 -18 
L 90 54 
M 24 -24 
L 96 48 
M 30 -30 
L 102 42 
M 36 -36 
L 108 36 
" style="fill: #00bfff; stroke: #00bfff; stroke-width: 1.0; stroke-linecap: butt; stroke-linejoin: miter"/>
  </pattern>
  <pattern id="h032c7294ec" patternUnits="userSpaceOnUse" x="0" y="0" width="72" height="72">
   <rect x="0" y="0" width="73" height="73" fill="none"/>
   <path d="M 0 69 
L 72 69 
M 0 63 
L 72 63 
M 0 57 
L 72 57 
M 0 51 
L 72 51 
M 0 45 
L 72 45 
M 0 39 
L 72 39 
M 0 33 
L 72 33 
M 0 27 
L 72 27 
M 0 21 
L 72 21 
M 0 15 
L 72 15 
M 0 9 
L 72 9 
M 0 3 
L 72 3 
M 3 72 
L 3 0 
M 9 72 
L 9 0 
M 15 72 
L 15 0 
M 21 72 
L 21 0 
M 27 72 
L 27 0 
M 33 72 
L 33 0 
M 39 72 
L 39 0 
M 45 72 
L 45 0 
M 51 72 
L 51 0 
M 57 72 
L 57 0 
M 63 72 
L 63 0 
M 69 72 
L 69 0 
" style="fill: #800080; stroke: #800080; stroke-width: 1.0; stroke-linecap: butt; stroke-linejoin: miter"/>
  </pattern>
 </defs>
</svg>
